<svg width="406" height="489" viewBox="0 0 406 489" fill="none" xmlns="http://www.w3.org/2000/svg">
<path d="M301.304 324.74C264.779 324.74 235.208 295.404 235.208 259.263C235.208 223.121 264.779 193.785 301.304 193.785C337.829 193.785 367.399 223.121 367.399 259.263C367.399 295.404 337.829 324.74 301.304 324.74Z" fill="black" stroke="#D6D6D6" stroke-width="5"/>
<ellipse cx="162.978" cy="328.729" rx="137.978" ry="124.543" fill="black"/>
<path d="M155.441 359.953C177.429 385.367 173.349 423.759 146.068 445.683C118.787 467.607 78.8672 464.574 56.8793 439.16C34.8913 413.746 38.971 375.354 66.2519 353.43C93.5327 331.506 133.453 334.539 155.441 359.953Z" fill="black" stroke="#D6D6D6" stroke-width="5"/>
<path d="M83.4213 362.796C69.7369 371.799 61.7177 387.902 66.4009 405.448" stroke="#D6D6D6" stroke-width="4" stroke-linecap="round"/>
<ellipse cx="69.4355" cy="67.0817" rx="69.4355" ry="67.0817" transform="matrix(0.779485 -0.626421 0.654293 0.756241 0 342.781)" fill="black"/>
<path d="M187.009 132.219C150.484 132.219 120.913 102.883 120.913 66.7415C120.913 30.6004 150.484 1.26367 187.009 1.26367C223.534 1.26367 253.104 30.6004 253.104 66.7415C253.104 102.883 223.534 132.219 187.009 132.219Z" fill="black" stroke="#D6D6D6" stroke-width="5"/>
<path d="M301.304 225.503C264.779 225.503 235.208 196.166 235.208 160.025C235.208 123.884 264.779 94.5469 301.304 94.5469C337.829 94.5469 367.399 123.884 367.399 160.025C367.399 196.166 337.829 225.503 301.304 225.503Z" fill="black" stroke="#D6D6D6" stroke-width="5"/>
<path d="M350.958 30.9326C379.325 63.7194 374.039 113.213 338.892 141.458C303.745 169.704 252.278 165.819 223.911 133.032C195.544 100.245 200.829 50.7516 235.976 22.5063C271.123 -5.73899 322.591 -1.85414 350.958 30.9326Z" fill="black" stroke="#D6D6D6" stroke-width="5"/>
<path d="M53.3418 177.473C54.6893 155.343 74.9382 138.416 98.6552 139.757C122.372 141.098 140.428 160.192 139.08 182.322C137.733 204.452 117.484 221.379 93.767 220.037C70.05 218.696 51.9943 199.602 53.3418 177.473Z" fill="black" stroke="#D6D6D6" stroke-width="3"/>
<path d="M109.246 248.73C93.9145 232.197 95.7493 206.424 113.46 191.17C131.17 175.915 157.949 177.041 173.28 193.573C188.611 210.106 186.776 235.879 169.066 251.133C151.356 266.388 124.576 265.262 109.246 248.73Z" fill="black" stroke="#D6D6D6" stroke-width="3"/>
<ellipse cx="102.628" cy="95.6843" rx="102.628" ry="95.6843" transform="matrix(-0.741651 -0.670786 0.697633 -0.716455 212.589 309.539)" fill="black"/>
</svg>
