<svg width="235" height="237" viewBox="0 0 235 237" fill="none" xmlns="http://www.w3.org/2000/svg">
<path d="M117.5 0.5L141.757 43.3095L186.365 23.036L181.006 72.0297L228.926 82.036L195.997 118.5L228.926 154.964L181.006 164.97L186.365 213.964L141.757 193.691L117.5 236.5L93.243 193.691L48.635 213.964L53.9943 164.97L6.07407 154.964L39.0027 118.5L6.07407 82.036L53.9943 72.0297L48.635 23.036L93.243 43.3095L117.5 0.5Z" fill="#6EC68E"/>
<path d="M69.8418 118.438C69.8418 145.252 84.331 163.5 110.686 163.5C134.918 163.5 145.785 145.872 145.91 118.438H150.906L147.159 132.093V162.259H167.144V124.024C167.144 117.197 163.397 113.472 156.527 113.472H110.561V128.369H130.921C130.921 140.162 123.427 146.121 111.436 146.121C96.9466 146.121 89.8269 137.803 89.8269 118.438C89.8269 99.1966 98.8202 90.8793 114.184 90.8793C127.424 90.8793 134.044 95.7207 136.042 106.024H156.028C153.405 86.9069 136.292 73.5 114.184 73.5C88.7027 73.5 69.8418 91.7483 69.8418 118.438Z" fill="white"/>
</svg>
