<svg width="87" height="60" viewBox="0 0 87 60" fill="none" xmlns="http://www.w3.org/2000/svg">
<path id="Star 19" d="M43.9809 14.0371L52.5174 4.6172L55.4398 10.3501L55.9489 11.3489L56.8833 10.7294L68.3303 3.14007L65.9507 10.075L65.2481 12.1227L67.2627 11.3301L78.7854 6.797L72.1069 14.1019L70.2676 16.1136L72.9715 15.7686L82.7895 14.5157L72.4476 21.3251L70.6395 22.5156L72.7182 23.1205L79.758 25.1689L66.9612 30.1564L65.9166 30.5635L66.4399 31.5549L69.4436 37.2456L56.8266 38.7993L56.2 38.8764L56.0002 39.4752L53.0721 48.2486L44.2135 45.5897L43.6089 45.4082L43.185 45.876L34.6485 55.2959L31.7262 49.563L31.217 48.5642L30.2827 49.1837L18.8356 56.773L21.2152 49.8381L21.9179 47.7904L19.9033 48.583L8.38052 53.1161L15.059 45.8112L16.8983 43.7994L14.1944 44.1445L4.37637 45.3973L14.7183 38.588L16.5264 37.3974L14.4477 36.7926L7.40791 34.7441L20.2048 29.7567L21.2493 29.3496L20.726 28.3582L17.7223 22.6675L30.3394 21.1138L30.9659 21.0366L31.1657 20.4378L34.0938 11.6645L42.9525 14.3234L43.5571 14.5048L43.9809 14.0371Z" fill="#F6CA45" stroke="black" stroke-width="2"/>
</svg>
