<svg width="446" height="376" viewBox="0 0 446 376" fill="none" xmlns="http://www.w3.org/2000/svg">
<g clip-path="url(#clip0_1176_3574)">
<path d="M236.5 139.5C236.5 186.931 196.943 225.5 148 225.5C99.0567 225.5 59.5 186.931 59.5 139.5C59.5 92.0687 99.0567 53.5 148 53.5C196.943 53.5 236.5 92.0687 236.5 139.5Z" fill="black" stroke="#D6D6D6" stroke-width="5"/>
<path d="M157.5 79.6685C135 77.5002 112 88.0002 101 111.168" stroke="#D6D6D6" stroke-width="4" stroke-linecap="round"/>
<path d="M95.173 126.815C94.1874 128.75 93.9478 132.544 94.1003 133.946" stroke="#D6D6D6" stroke-width="4" stroke-linecap="round"/>
<path d="M133.318 186.86C147.248 203.565 144.675 228.822 127.366 243.255C110.056 257.689 84.7483 255.68 70.8186 238.974C56.889 222.269 59.4613 197.012 76.7708 182.579C94.0802 168.145 119.388 170.154 133.318 186.86Z" fill="black" stroke="#D6D6D6" stroke-width="5"/>
<path d="M169.612 246.114C190.969 271.727 186.993 310.395 160.525 332.465C134.057 354.535 95.3036 351.497 73.947 325.884C52.5903 300.272 56.5664 261.604 83.0343 239.534C109.502 217.464 148.255 220.502 169.612 246.114Z" fill="black" stroke="#D6D6D6" stroke-width="5"/>
<path d="M99.6969 248.957C86.407 258.029 78.619 274.255 83.1671 291.937" stroke="#D6D6D6" stroke-width="4" stroke-linecap="round"/>
<path d="M87.1145 303.147C87.4578 304.655 89.0567 306.838 89.7789 307.535" stroke="#D6D6D6" stroke-width="4" stroke-linecap="round"/>
<path d="M379.5 182.5C344.154 182.5 315.382 153.017 315.382 116.5C315.382 79.9831 344.154 50.5 379.5 50.5C414.846 50.5 443.618 79.9831 443.618 116.5C443.618 153.017 414.846 182.5 379.5 182.5Z" fill="black" stroke="#D6D6D6" stroke-width="5"/>
<path d="M311.931 57.9868C333.288 83.599 329.312 122.267 302.844 144.337C276.376 166.408 237.623 163.369 216.266 137.757C194.91 112.144 198.886 73.4762 225.354 51.406C251.822 29.3359 290.575 32.3746 311.931 57.9868Z" fill="black" stroke="#D6D6D6" stroke-width="5"/>
<path d="M242.016 60.8292C228.726 69.9013 220.938 86.1274 225.486 103.809" stroke="#D6D6D6" stroke-width="4" stroke-linecap="round"/>
<path d="M229.434 115.02C229.777 116.527 231.376 118.711 232.098 119.408" stroke="#D6D6D6" stroke-width="4" stroke-linecap="round"/>
<ellipse cx="256" cy="213" rx="127" ry="119" fill="black"/>
<path d="M267.474 213.278C244.91 211.919 222.302 223.238 212.141 246.786" stroke="#D6D6D6" stroke-width="4" stroke-linecap="round"/>
<path d="M223.496 251.842C202.787 242.782 177.662 245.605 160 264.201" stroke="#D6D6D6" stroke-width="4" stroke-linecap="round"/>
</g>
<defs>
<clipPath id="clip0_1176_3574">
<rect width="446" height="376" fill="white"/>
</clipPath>
</defs>
</svg>
