<svg width="317" height="379" viewBox="0 0 317 379" fill="none" xmlns="http://www.w3.org/2000/svg">
<g clip-path="url(#clip0_1176_3572)">
<path d="M171.789 375.801C103.335 375.801 47.9574 321.789 47.9574 255.301C47.9574 188.813 103.335 134.801 171.789 134.801C240.242 134.801 295.62 188.813 295.62 255.301C295.62 321.789 240.242 375.801 171.789 375.801Z" fill="black" stroke="#D6D6D6" stroke-width="5"/>
<path d="M142.038 199.832C98.2964 176.39 83.4966 122.898 108.977 80.3568C134.457 37.8152 190.571 22.3281 234.313 45.7703C278.055 69.2125 292.855 122.704 267.374 165.246C241.894 207.787 185.78 223.274 142.038 199.832Z" fill="black" stroke="#D6D6D6" stroke-width="5"/>
<path d="M238.26 160.56C251.979 142.053 254.307 116.865 238.729 95.8742" stroke="#D6D6D6" stroke-width="4" stroke-linecap="round"/>
<path d="M227.374 83.0922C226.107 81.2807 222.742 79.2018 221.374 78.6438" stroke="#D6D6D6" stroke-width="4" stroke-linecap="round"/>
<path d="M145.503 174.301C145.503 210.281 113.694 239.801 74.0016 239.801C34.3091 239.801 2.5 210.281 2.5 174.301C2.5 138.321 34.3091 108.801 74.0016 108.801C113.694 108.801 145.503 138.321 145.503 174.301Z" fill="black" stroke="#D6D6D6" stroke-width="5"/>
<path d="M235.363 248.801C235.363 291.127 197.879 325.801 151.175 325.801C104.471 325.801 66.9873 291.127 66.9873 248.801C66.9873 206.474 104.471 171.801 151.175 171.801C197.879 171.801 235.363 206.474 235.363 248.801Z" fill="black" stroke="#D6D6D6" stroke-width="5"/>
<path d="M98.448 224.489C113.57 241.643 110.762 267.556 92.0042 282.351C73.2458 297.147 45.7937 295.102 30.6716 277.948C15.5496 260.793 18.3571 234.881 37.1154 220.085C55.8737 205.289 83.3259 207.334 98.448 224.489Z" fill="black" stroke="#D6D6D6" stroke-width="3"/>
<ellipse cx="115.231" cy="202.301" rx="76.116" ry="67" fill="black"/>
</g>
<defs>
<clipPath id="clip0_1176_3572">
<rect width="317" height="378.301" fill="white"/>
</clipPath>
</defs>
</svg>
