<svg width="52" height="51" viewBox="0 0 52 51" fill="none" xmlns="http://www.w3.org/2000/svg">
<path id="Asterisk 2" d="M11.2534 24.2007L13.5059 25.5L11.2534 26.7993L2.05049 32.1079L8.2909 42.8944L17.5038 37.5924L19.7507 36.2993L19.752 38.8918L19.7572 49.5H32.2428L32.248 38.8918L32.2493 36.2993L34.4962 37.5924L43.709 42.8944L49.9495 32.1079L40.7465 26.7993L38.494 25.5L40.7465 24.2007L49.9495 18.8921L43.709 8.10555L34.4962 13.4076L32.2493 14.7007L32.248 12.1082L32.2428 1.5H19.7572L19.752 12.1082L19.7507 14.7007L17.5038 13.4076L8.2909 8.10555L2.05049 18.8921L11.2534 24.2007Z" stroke="white" stroke-width="3"/>
</svg>
