<svg width="171" height="168" viewBox="0 0 171 168" fill="none" xmlns="http://www.w3.org/2000/svg">
<path d="M35.2922 85.2988L37.5399 84L35.2922 82.7012L2.04896 63.4925L26.0085 22.0072L59.2718 41.1831L61.5197 42.479L61.521 39.8843L61.5398 1.5H109.46L109.479 39.8843L109.48 42.479L111.728 41.1831L144.991 22.0072L168.951 63.4925L135.708 82.7012L133.46 84L135.708 85.2988L168.951 104.507L144.991 145.993L111.728 126.817L109.48 125.521L109.479 128.116L109.46 166.5H61.5398L61.521 128.116L61.5197 125.521L59.2718 126.817L26.0085 145.993L2.04896 104.507L35.2922 85.2988Z" stroke="white" stroke-width="3"/>
</svg>
