<svg width="392" height="509" viewBox="0 0 392 509" fill="none" xmlns="http://www.w3.org/2000/svg">
<path d="M229.989 276.5C229.989 323.836 188.799 362.5 137.616 362.5C86.4341 362.5 45.2441 323.836 45.2441 276.5C45.2441 229.164 86.4341 190.5 137.616 190.5C188.799 190.5 229.989 229.164 229.989 276.5Z" fill="black" stroke="#D6D6D6" stroke-width="5"/>
<path d="M389.5 177.5C389.5 224.836 348.31 263.5 297.127 263.5C245.945 263.5 204.755 224.836 204.755 177.5C204.755 130.164 245.945 91.5 297.127 91.5C348.31 91.5 389.5 130.164 389.5 177.5Z" fill="black" stroke="#D6D6D6" stroke-width="5"/>
<path d="M307.031 140.668C283.574 138.5 259.595 149 248.127 172.168" stroke="#D6D6D6" stroke-width="4" stroke-linecap="round"/>
<path d="M242.053 187.814C241.025 189.749 240.775 193.544 240.934 194.945" stroke="#D6D6D6" stroke-width="4" stroke-linecap="round"/>
<path d="M130.001 103.025C178.461 113.155 208.901 160.098 198.055 207.834C187.209 255.57 139.164 286.105 90.7037 275.975C42.2436 265.845 11.8032 218.902 22.6496 171.166C33.496 123.43 81.5408 92.8946 130.001 103.025Z" fill="black" stroke="#D6D6D6" stroke-width="5"/>
<path d="M51.5143 167.477C44.3105 188.999 49.9002 213.708 71.0582 229.389" stroke="#D6D6D6" stroke-width="4" stroke-linecap="round"/>
<path d="M162.658 233.089C170.582 203.207 203.094 185.064 235.529 192.978C267.964 200.891 287.487 231.729 279.562 261.611C271.638 291.493 239.126 309.636 206.691 301.723C174.256 293.809 154.734 262.971 162.658 233.089Z" fill="black" stroke="#D6D6D6" stroke-width="5"/>
<path d="M204.573 284.194C219.256 289.258 236.43 286.274 247.732 273.203" stroke="#D6D6D6" stroke-width="4" stroke-linecap="round"/>
<path d="M254.293 264.113C255.282 263.032 256.088 260.637 256.224 259.713" stroke="#D6D6D6" stroke-width="4" stroke-linecap="round"/>
<ellipse cx="114.32" cy="104.863" rx="114.32" ry="104.863" transform="matrix(0.874814 0.484459 -0.515704 0.856767 154.793 0.201172)" fill="black"/>
<path d="M107.407 153.342C109.861 175.824 125.362 196.273 151.315 202.442" stroke="#D6D6D6" stroke-width="4" stroke-linecap="round"/>
</svg>
