<svg width="60" height="60" viewBox="0 0 60 60" fill="none" xmlns="http://www.w3.org/2000/svg">
<path d="M30 0L33.775 11.0218L41.4805 2.28361L40.7503 13.9111L51.2132 8.7868L46.0889 19.2497L57.7164 18.5195L48.9782 26.225L60 30L48.9782 33.775L57.7164 41.4805L46.0889 40.7503L51.2132 51.2132L40.7503 46.0889L41.4805 57.7164L33.775 48.9782L30 60L26.225 48.9782L18.5195 57.7164L19.2497 46.0889L8.7868 51.2132L13.9111 40.7503L2.28361 41.4805L11.0218 33.775L0 30L11.0218 26.225L2.28361 18.5195L13.9111 19.2497L8.7868 8.7868L19.2497 13.9111L18.5195 2.28361L26.225 11.0218L30 0Z" fill="#6EC68E"/>
<rect x="18.8574" y="22.2857" width="24" height="3.42857" rx="1.71429" fill="black"/>
<rect x="18.8574" y="27.4286" width="24" height="3.42857" rx="1.71429" fill="black"/>
<rect x="18.8574" y="32.5714" width="24" height="3.42857" rx="1.71429" fill="black"/>
</svg>
