<svg width="44" height="44" viewBox="0 0 44 44" fill="none" xmlns="http://www.w3.org/2000/svg">
<path d="M22 0L24.7683 8.08266L30.419 1.67465L29.8835 10.2014L37.5564 6.44365L33.7986 14.1165L42.3253 13.581L35.9173 19.2317L44 22L35.9173 24.7683L42.3253 30.419L33.7986 29.8835L37.5564 37.5564L29.8835 33.7986L30.419 42.3253L24.7683 35.9173L22 44L19.2317 35.9173L13.581 42.3253L14.1165 33.7986L6.44365 37.5564L10.2014 29.8835L1.67465 30.419L8.08266 24.7683L0 22L8.08266 19.2317L1.67465 13.581L10.2014 14.1165L6.44365 6.44365L14.1165 10.2014L13.581 1.67465L19.2317 8.08266L22 0Z" fill="#FBA2B7"/>
<rect x="16.8635" y="15.0857" width="17.6" height="2.51429" rx="1.25714" transform="rotate(45 16.8635 15.0857)" fill="black"/>
<rect x="15.0857" y="27.5308" width="17.6" height="2.51429" rx="1.25714" transform="rotate(-45 15.0857 27.5308)" fill="black"/>
</svg>
