<svg width="16" height="16" viewBox="0 0 16 16" fill="none" xmlns="http://www.w3.org/2000/svg">
<rect width="16" height="16" rx="2" fill="black"/>
<ellipse cx="9.53842" cy="3.38461" rx="1.38461" ry="1.38462" fill="url(#paint0_linear_1463_5746)"/>
<rect x="2" y="2" width="2.76923" height="5.84615" rx="1.38461" fill="url(#paint1_linear_1463_5746)"/>
<rect x="8.15381" y="11.2307" width="5.84615" height="2.76923" rx="1.38462" fill="url(#paint2_linear_1463_5746)"/>
<rect x="8.15381" y="2" width="5.84615" height="2.76923" rx="1.38462" fill="url(#paint3_linear_1463_5746)"/>
<ellipse cx="3.38461" cy="9.53842" rx="1.38461" ry="1.38462" fill="url(#paint4_linear_1463_5746)"/>
<ellipse cx="6.46176" cy="9.53842" rx="1.38461" ry="1.38462" fill="url(#paint5_linear_1463_5746)"/>
<ellipse cx="6.46176" cy="6.46152" rx="1.38461" ry="1.38462" fill="url(#paint6_linear_1463_5746)"/>
<ellipse cx="6.46176" cy="3.38461" rx="1.38461" ry="1.38462" fill="url(#paint7_linear_1463_5746)"/>
<ellipse cx="6.46176" cy="12.6153" rx="1.38461" ry="1.38462" fill="url(#paint8_linear_1463_5746)"/>
<ellipse cx="9.53842" cy="9.53842" rx="1.38461" ry="1.38462" fill="url(#paint9_linear_1463_5746)"/>
<ellipse cx="12.6153" cy="9.53842" rx="1.38461" ry="1.38462" fill="url(#paint10_linear_1463_5746)"/>
<ellipse cx="12.6153" cy="6.46152" rx="1.38461" ry="1.38462" fill="url(#paint11_linear_1463_5746)"/>
<ellipse cx="9.53842" cy="6.46152" rx="1.38461" ry="1.38462" fill="url(#paint12_linear_1463_5746)"/>
<ellipse cx="3.38461" cy="12.6153" rx="1.38461" ry="1.38462" fill="url(#paint13_linear_1463_5746)"/>
<path fill-rule="evenodd" clip-rule="evenodd" d="M7.84604 12.6154C7.84604 11.4187 8.3417 10.9231 9.53834 10.9231L8.15373 9.53845C8.15373 10.7351 7.65807 11.2308 6.46143 11.2308L7.84604 12.6154Z" fill="url(#paint14_linear_1463_5746)"/>
<path fill-rule="evenodd" clip-rule="evenodd" d="M8.15373 3.38464C8.15373 4.58129 7.65807 5.07695 6.46143 5.07695L7.84604 6.46157C7.84604 5.26492 8.3417 4.76926 9.53834 4.76926L8.15373 3.38464Z" fill="url(#paint15_linear_1463_5746)"/>
<path fill-rule="evenodd" clip-rule="evenodd" d="M12.6142 8.16326C11.4176 8.15594 10.9249 7.65725 10.9323 6.46063L9.5392 7.83675C10.7358 7.84407 11.2284 8.34276 11.2211 9.53938L12.6142 8.16326Z" fill="url(#paint16_linear_1463_5746)"/>
<path fill-rule="evenodd" clip-rule="evenodd" d="M3.38499 10.9191C4.58163 10.9222 5.07601 11.4192 5.07291 12.6158L6.4611 11.2348C5.26447 11.2317 4.77009 10.7347 4.77319 9.53809L3.38499 10.9191Z" fill="url(#paint17_linear_1463_5746)"/>
<defs>
<linearGradient id="paint0_linear_1463_5746" x1="8.15381" y1="2" x2="10.923" y2="4.76923" gradientUnits="userSpaceOnUse">
<stop stop-color="#FFF6B7"/>
<stop offset="1" stop-color="#F6416C"/>
</linearGradient>
<linearGradient id="paint1_linear_1463_5746" x1="2" y1="2" x2="6.52349" y2="4.1427" gradientUnits="userSpaceOnUse">
<stop stop-color="#FFA8A8"/>
<stop offset="1" stop-color="#FCFF00"/>
</linearGradient>
<linearGradient id="paint2_linear_1463_5746" x1="8.15381" y1="11.2307" x2="10.2965" y2="15.7542" gradientUnits="userSpaceOnUse">
<stop stop-color="#FAB2FF"/>
<stop offset="1" stop-color="#1904E5"/>
</linearGradient>
<linearGradient id="paint3_linear_1463_5746" x1="8.15381" y1="2" x2="10.2965" y2="6.52349" gradientUnits="userSpaceOnUse">
<stop stop-color="#FFF6B7"/>
<stop offset="1" stop-color="#F6416C"/>
</linearGradient>
<linearGradient id="paint4_linear_1463_5746" x1="2" y1="8.15381" x2="4.76923" y2="10.923" gradientUnits="userSpaceOnUse">
<stop stop-color="#F0FF00"/>
<stop offset="1" stop-color="#58CFFB"/>
</linearGradient>
<linearGradient id="paint5_linear_1463_5746" x1="5.07715" y1="8.15381" x2="7.84638" y2="10.923" gradientUnits="userSpaceOnUse">
<stop stop-color="#81FFEF"/>
<stop offset="1" stop-color="#F067B4"/>
</linearGradient>
<linearGradient id="paint6_linear_1463_5746" x1="5.07715" y1="5.0769" x2="7.84638" y2="7.84613" gradientUnits="userSpaceOnUse">
<stop stop-color="#FFF6B7"/>
<stop offset="1" stop-color="#F6416C"/>
</linearGradient>
<linearGradient id="paint7_linear_1463_5746" x1="5.07715" y1="2" x2="7.84638" y2="4.76923" gradientUnits="userSpaceOnUse">
<stop stop-color="#F97794"/>
<stop offset="1" stop-color="#623AA2"/>
</linearGradient>
<linearGradient id="paint8_linear_1463_5746" x1="5.07715" y1="11.2307" x2="7.84638" y2="13.9999" gradientUnits="userSpaceOnUse">
<stop stop-color="#F0FF00"/>
<stop offset="1" stop-color="#58CFFB"/>
</linearGradient>
<linearGradient id="paint9_linear_1463_5746" x1="8.15381" y1="8.15381" x2="10.923" y2="10.923" gradientUnits="userSpaceOnUse">
<stop stop-color="#F0FF00"/>
<stop offset="1" stop-color="#58CFFB"/>
</linearGradient>
<linearGradient id="paint10_linear_1463_5746" x1="11.2307" y1="8.15381" x2="13.9999" y2="10.923" gradientUnits="userSpaceOnUse">
<stop stop-color="#92FFC0"/>
<stop offset="1" stop-color="#002661"/>
</linearGradient>
<linearGradient id="paint11_linear_1463_5746" x1="11.2307" y1="5.0769" x2="13.9999" y2="7.84613" gradientUnits="userSpaceOnUse">
<stop stop-color="#65FDF0"/>
<stop offset="1" stop-color="#1D6FA3"/>
</linearGradient>
<linearGradient id="paint12_linear_1463_5746" x1="8.15381" y1="5.0769" x2="10.923" y2="7.84613" gradientUnits="userSpaceOnUse">
<stop stop-color="#92FFC0"/>
<stop offset="1" stop-color="#002661"/>
</linearGradient>
<linearGradient id="paint13_linear_1463_5746" x1="2" y1="11.2307" x2="4.76923" y2="13.9999" gradientUnits="userSpaceOnUse">
<stop stop-color="#72EDF2"/>
<stop offset="1" stop-color="#5151E5"/>
</linearGradient>
<linearGradient id="paint14_linear_1463_5746" x1="6.46143" y1="9.53845" x2="9.53835" y2="12.6154" gradientUnits="userSpaceOnUse">
<stop stop-color="#F0FF00"/>
<stop offset="1" stop-color="#58CFFB"/>
</linearGradient>
<linearGradient id="paint15_linear_1463_5746" x1="6.46143" y1="3.38464" x2="9.53835" y2="6.46156" gradientUnits="userSpaceOnUse">
<stop stop-color="#FFF6B7"/>
<stop offset="1" stop-color="#F6416C"/>
</linearGradient>
<linearGradient id="paint16_linear_1463_5746" x1="12.6057" y1="9.54785" x2="9.54767" y2="6.45217" gradientUnits="userSpaceOnUse">
<stop stop-color="#92FFC0"/>
<stop offset="1" stop-color="#002661"/>
</linearGradient>
<linearGradient id="paint17_linear_1463_5746" x1="6.45752" y1="12.6194" x2="3.38858" y2="9.53451" gradientUnits="userSpaceOnUse">
<stop stop-color="#F0FF00"/>
<stop offset="1" stop-color="#58CFFB"/>
</linearGradient>
</defs>
</svg>
