<svg width="158" height="100" viewBox="0 0 158 100" fill="none" xmlns="http://www.w3.org/2000/svg">
<path fill-rule="evenodd" clip-rule="evenodd" d="M158 50C158 50 122.631 100 79 100C35.3697 100 0 50 0 50C0 50 35.3697 0 79 0C122.631 0 158 50 158 50ZM115.056 50C115.056 70.0911 98.9137 86.3783 79 86.3783C59.0863 86.3783 42.9437 70.0911 42.9437 50C42.9437 29.9089 59.0863 13.6216 79 13.6216C98.9137 13.6216 115.056 29.9089 115.056 50ZM79 55.5916C90.4113 55.5916 99.6615 46.2585 99.6615 34.7458C99.6615 23.233 90.4113 13.8999 79 13.8999C67.5888 13.8999 58.3385 23.233 58.3385 34.7458C58.3385 46.2585 67.5888 55.5916 79 55.5916Z" fill="white"/>
</svg>
