<svg width="108" height="107" viewBox="0 0 108 107" fill="none" xmlns="http://www.w3.org/2000/svg">
<path d="M52.5589 1.26828C52.7616 -0.42276 55.2384 -0.42276 55.4411 1.26828L57.1401 15.4546C59.3339 33.7729 73.9115 48.2155 92.4009 50.389L106.72 52.0723C108.427 52.2731 108.427 54.7269 106.72 54.9277L92.4009 56.611C73.9115 58.7845 59.3339 73.2271 57.1401 91.5453L55.4411 105.732C55.2384 107.423 52.7616 107.423 52.5589 105.732L50.8599 91.5453C48.6661 73.2271 34.0885 58.7845 15.599 56.611L1.28013 54.9277C-0.426711 54.7269 -0.426711 52.2731 1.28013 52.0723L15.599 50.389C34.0885 48.2155 48.6661 33.7729 50.8599 15.4546L52.5589 1.26828Z" fill="#5868FC"/>
</svg>
