<svg width="164" height="70" viewBox="0 0 164 70" fill="none" xmlns="http://www.w3.org/2000/svg">
<path d="M95.448 12.7415L116.93 5.55515L116.847 15.9974L116.834 17.6624L118.491 17.5024L143.099 15.1265L133.546 23.3225L130.863 25.6247L134.383 25.9544L156.61 28.0361L139.826 33.5756L135.51 35L139.826 36.4244L156.61 41.9639L134.383 44.0456L130.863 44.3753L133.546 46.6775L143.099 54.8735L118.491 52.4976L116.834 52.3376L116.847 54.0026L116.93 64.4449L95.448 57.2585L94.6332 56.9859L93.9859 57.5508L82 68.0092L70.0141 57.5508L69.3668 56.9859L68.552 57.2585L47.0703 64.4449L47.153 54.0026L47.1662 52.3376L45.5089 52.4976L20.901 54.8735L30.4538 46.6775L33.1372 44.3753L29.617 44.0456L7.38994 41.9639L24.1741 36.4244L28.4901 35L24.1741 33.5756L7.38994 28.0361L29.617 25.9544L33.1372 25.6247L30.4538 23.3225L20.901 15.1265L45.5089 17.5024L47.1662 17.6624L47.153 15.9974L47.0703 5.55515L68.552 12.7415L69.3668 13.0141L70.0141 12.4492L82 1.99075L93.9859 12.4492L94.6332 13.0141L95.448 12.7415Z" fill="#F6CA45" stroke="black" stroke-width="3"/>
</svg>
