<svg width="773" height="773" viewBox="0 0 773 773" fill="none" xmlns="http://www.w3.org/2000/svg">
<path fill-rule="evenodd" clip-rule="evenodd" d="M386.5 772C599.406 772 772 599.406 772 386.5C772 173.594 599.406 1 386.5 1C173.594 1 1 173.594 1 386.5C1 599.406 173.594 772 386.5 772ZM386.5 773C599.958 773 773 599.958 773 386.5C773 173.042 599.958 0 386.5 0C173.042 0 0 173.042 0 386.5C0 599.958 173.042 773 386.5 773Z" fill="#202020"/>
<path fill-rule="evenodd" clip-rule="evenodd" d="M386.501 701.487C560.463 701.487 701.487 560.463 701.487 386.5C701.487 212.538 560.463 71.5132 386.501 71.5132C212.538 71.5132 71.5137 212.538 71.5137 386.5C71.5137 560.463 212.538 701.487 386.501 701.487ZM386.501 702.487C561.015 702.487 702.487 561.015 702.487 386.5C702.487 211.985 561.015 70.5132 386.501 70.5132C211.986 70.5132 70.5137 211.985 70.5137 386.5C70.5137 561.015 211.986 702.487 386.501 702.487Z" fill="#202020"/>
<path d="M762.982 409.878L764.006 392.198L714.739 389.343L714.091 400.524L728.766 401.375L728.39 407.874C727.669 420.313 729.494 429.955 744.449 430.821C759.334 431.684 762.261 422.317 762.982 409.878ZM738.133 409.139L738.55 401.942L753.575 402.812L753.158 410.01C752.773 416.649 751.876 420.033 745.097 419.64C738.248 419.243 737.748 415.778 738.133 409.139Z" fill="#202020"/>
<path d="M711.959 428.93L705.892 463.614L715.546 465.302L719.683 441.651L729.543 443.376L726.009 463.579L735.662 465.268L739.196 445.065L748.988 446.778L744.851 470.428L754.504 472.117L760.571 437.434L711.959 428.93Z" fill="#202020"/>
<path d="M705.739 463.609L702.524 474.338L719.153 479.321L713.607 497.828L696.978 492.844L693.763 503.573L708.85 508.094C712.538 509.199 715.153 507.791 716.258 504.103L718.327 497.196L721.01 498C719.972 503.9 720.229 510.846 728.007 513.177C738.602 516.352 744.151 507.346 747.526 496.081L753.012 477.775L705.739 463.609ZM728.541 482.134L740.409 485.691L738.139 493.268C736.23 499.638 735.044 503.594 729.077 501.806C723.176 500.037 724.361 496.081 726.27 489.711L728.541 482.134Z" fill="#202020"/>
<path d="M687.428 550.018C696.813 554.238 706.101 543.14 712.641 536.104C718.311 529.98 719.565 529.239 721.608 530.158C723.907 531.191 723.636 534.523 721.57 539.12C719.072 544.675 715.646 548.199 710.155 545.731L705.562 555.946C714.501 559.964 724.308 556.929 730.508 543.139C735.732 531.519 734.245 523.559 726.584 520.115C717.774 516.154 711.747 522.731 704.277 530.808C699.086 536.38 695.149 541.21 691.893 539.746C689.467 538.655 688.911 535.796 691.867 529.22C695.886 520.282 699.607 517.81 706.502 520.91L711.095 510.695C699.73 505.586 690.364 508.665 683.073 524.882C676.844 538.736 679.703 546.545 687.428 550.018Z" fill="#202020"/>
<path d="M696.91 555.176C684.687 547.525 670.32 549.763 662 563.053C653.717 576.285 657.981 590.185 670.204 597.837C682.367 605.451 696.734 603.213 705.017 589.982C713.337 576.691 709.073 562.79 696.91 555.176ZM690.967 564.669C698.977 569.684 701.65 576.89 696.71 584.782C691.77 592.673 684.157 593.358 676.147 588.343C668.078 583.292 665.367 576.145 670.307 568.253C675.247 560.362 682.897 559.618 690.967 564.669Z" fill="#202020"/>
<path d="M649.137 583.894L641.844 592.395L671.862 618.147L678.542 621.111L676.719 623.236L631.68 604.242L617.323 620.978L654.778 653.111L662.071 644.61L632.054 618.858L625.373 615.894L627.197 613.769L672.235 632.763L686.592 616.027L649.137 583.894Z" fill="#202020"/>
<path d="M588.876 645.101L580.351 652.578L623.627 680.265L640.994 665.033L619.137 618.561L610.612 626.039L617.727 640.84L602.676 654.041L588.876 645.101ZM622.137 650.008L631.517 669.621L629.411 671.467L611.19 659.608L622.137 650.008Z" fill="#202020"/>
<path d="M576.11 653.251L552.346 670.215L557.846 678.326L577.324 664.269L599.917 697.58L609.187 691.293L584.393 654.738C582.232 651.552 579.257 651.032 576.11 653.251Z" fill="#202020"/>
<path d="M506.173 707.449C510.497 716.787 524.785 714.49 534.336 713.461C542.632 712.551 544.065 712.813 545.006 714.845C546.065 717.132 543.677 719.472 539.104 721.59C533.578 724.149 528.679 724.566 526.15 719.104L515.987 723.81C520.105 732.703 529.502 736.837 543.222 730.483C554.783 725.129 558.876 718.142 555.346 710.52C551.286 701.754 542.424 702.773 531.489 703.98C523.917 704.786 517.777 705.855 516.277 702.616C515.159 700.202 516.613 697.677 523.156 694.648C532.048 690.529 536.478 691.101 539.655 697.961L549.818 693.254C544.583 681.948 535.489 678.136 519.355 685.608C505.571 691.991 502.614 699.763 506.173 707.449Z" fill="#202020"/>
<path d="M482.546 741.781L485.606 751.091L517.526 740.598L514.465 731.289L503.825 734.786L494.535 706.524L505.175 703.026L502.115 693.716L470.195 704.209L473.255 713.519L483.895 710.021L493.186 738.284L482.546 741.781Z" fill="#202020"/>
<path d="M438.323 761.042L480.894 752.246L478.911 742.649L463.075 745.921L455.073 707.189L444.104 709.455L452.107 748.187L436.34 751.445L438.323 761.042Z" fill="#202020"/>
<path d="M429.279 711.929L394.195 714.913L395.026 724.678L418.95 722.643L419.798 732.617L399.362 734.355L400.192 744.12L420.628 742.382L421.471 752.286L397.547 754.321L398.378 764.086L433.461 761.102L429.279 711.929Z" fill="#202020"/>
<path d="M221.881 725.978L238.251 733.931L259.817 689.543L243.447 681.589C231.61 675.838 217.771 672.928 208.471 692.068C199.202 711.146 210.044 720.227 221.881 725.978ZM239.165 690.404L245.461 693.463L232.46 720.222L226.164 717.163C218.293 713.339 212.366 709.681 218.545 696.963C224.755 684.181 231.294 686.58 239.165 690.404Z" fill="#202020"/>
<path d="M189.019 648.831L179.611 642.5L163.907 691.415L183.072 704.312L222.413 671.302L213.004 664.971L200.514 675.634L183.904 664.457L189.019 648.831ZM192.777 682.24L176.214 696.322L173.891 694.759L180.698 674.112L192.777 682.24Z" fill="#202020"/>
<path d="M118.416 652.989L150.993 681.77L157.482 674.426L145.364 663.72L171.55 634.08L163.156 626.665L136.97 656.304L124.905 645.644L118.416 652.989Z" fill="#202020"/>
<path d="M127.612 588.441L120.166 579.888L92.3225 623.063L107.491 640.485L154.042 618.798L146.596 610.245L131.768 617.307L118.622 602.208L127.612 588.441ZM122.584 621.683L102.938 630.992L101.099 628.88L113.024 610.702L122.584 621.683Z" fill="#202020"/>
<path d="M79.7526 538.81C70.9124 544.077 74.6738 558.05 76.6851 567.444C78.4481 575.601 78.3354 577.054 76.411 578.2C74.2461 579.49 71.6717 577.357 69.0923 573.027C65.9755 567.795 65.0544 562.966 70.2262 559.885L64.4942 550.263C56.0749 555.278 52.9348 565.053 60.673 578.042C67.1932 588.987 74.5657 592.336 81.7822 588.037C90.0812 583.093 88.1519 574.383 85.8208 563.632C84.2357 556.184 82.5379 550.188 85.6049 548.361C87.8902 546.999 90.5515 548.184 94.2415 554.378C99.257 562.798 99.1469 567.263 92.652 571.132L98.384 580.754C109.089 574.377 111.94 564.939 102.84 549.664C95.0659 536.614 87.0293 534.475 79.7526 538.81Z" fill="#202020"/>
<path d="M70.0249 543.526C83.3058 537.909 89.6646 524.731 83.5564 510.289C78.1845 497.589 67.6768 492.153 55.8218 495.571L60.1848 505.886C66.6168 504.382 71.8582 507.789 74.476 513.978C77.8301 521.908 75.0746 529.23 65.6619 533.211C56.3137 537.165 49.1408 534.043 45.7867 526.113C43.1689 519.924 44.3101 513.817 49.8695 510.249L45.5066 499.934C34.8614 506.032 31.4435 517.359 36.8154 530.059C42.9236 544.501 56.8085 549.116 70.0249 543.526Z" fill="#202020"/>
<path d="M27.7193 468.25L18.2902 470.92L27.4469 503.249L36.876 500.578L33.8237 489.802L62.4477 481.694L65.4999 492.47L74.929 489.8L65.7723 457.471L56.3433 460.142L59.3955 470.918L30.7715 479.026L27.7193 468.25Z" fill="#202020"/>
<path d="M65.5856 455.477L59.7844 420.748L50.1183 422.363L54.0742 446.045L44.201 447.694L40.8218 427.464L31.1557 429.079L34.5349 449.309L24.7308 450.946L20.7749 427.265L11.1088 428.879L16.91 463.608L65.5856 455.477Z" fill="#202020"/>
<path d="M59.7361 420.728L59.3039 409.536L19.7834 411.062L12.8696 413.431L12.7616 410.633L58.7017 393.938L57.8509 371.904L8.53763 373.809L8.96977 385L48.4903 383.474L55.4041 381.106L55.5121 383.904L9.57206 400.599L10.4228 422.632L59.7361 420.728Z" fill="#202020"/>
<path d="M33.7569 368.278C48.0869 369.887 60.0859 361.513 61.8351 345.931C63.3734 332.227 56.8757 322.341 44.8662 319.513L43.6168 330.643C49.9612 332.483 52.8615 338.021 52.1119 344.699C51.1514 353.255 45.1625 358.288 35.0063 357.148C24.9197 356.016 20.1958 349.78 21.1563 341.224C21.9059 334.546 25.8924 329.781 32.4867 329.394L33.7361 318.264C21.4681 318.366 12.9402 326.566 11.4018 340.27C9.65268 355.852 19.4965 366.678 33.7569 368.278Z" fill="#202020"/>
<path d="M64.3718 323.46L72.6745 289.243L63.1508 286.932L57.4892 310.265L47.7614 307.904L52.5978 287.973L43.0742 285.662L38.2378 305.594L28.5781 303.25L34.2398 279.917L24.7161 277.606L16.4134 311.823L64.3718 323.46Z" fill="#202020"/>
<path d="M116.69 122.514L131.859 136.214L115.251 154.604L100.082 140.905L92.5749 149.217L129.2 182.293L136.707 173.981L122.524 161.173L139.133 142.782L153.315 155.59L160.822 147.278L124.197 114.202L116.69 122.514Z" fill="#202020"/>
<path d="M144.874 128.848C154.063 139.962 168.403 142.365 180.487 132.374C192.518 122.427 192.852 107.891 183.663 96.7774C174.519 85.718 160.179 83.3144 148.149 93.2612C136.065 103.253 135.73 117.789 144.874 128.848ZM153.506 121.711C147.485 114.428 147.218 106.746 154.394 100.814C161.569 94.8816 169.01 96.6312 175.032 103.914C181.098 111.251 181.418 118.889 174.243 124.821C167.068 130.753 159.572 129.048 153.506 121.711Z" fill="#202020"/>
<path d="M185.408 96.0942C192.879 108.428 206.835 112.823 220.247 104.699C232.042 97.5549 235.908 86.374 230.819 75.1347L221.239 80.9374C223.654 87.0858 221.037 92.7631 215.289 96.2447C207.925 100.706 200.283 99.0329 194.988 90.2915C189.729 81.61 191.786 74.0622 199.151 69.6014C204.898 66.1198 211.106 66.3698 215.437 71.3577L225.016 65.5551C217.449 55.8988 205.748 54.1472 193.954 61.2918C180.542 69.4155 177.973 83.8203 185.408 96.0942Z" fill="#202020"/>
<path d="M264.049 28.5714L248.987 35.0085L236.876 59.2158L229.998 43.1237L219.699 47.5252L239.093 92.9047L249.392 88.5032L242.543 72.4756L268.381 80.388L283.443 73.9509L246.403 62.9847L264.049 28.5714Z" fill="#202020"/>
<path d="M280.65 75.7439L314.49 66.0203L311.784 56.6014L288.708 63.232L285.943 53.6113L305.656 47.9472L302.949 38.5283L283.237 44.1924L280.492 34.639L303.568 28.0083L300.862 18.5894L267.021 28.3131L280.65 75.7439Z" fill="#202020"/>
<path d="M340.751 11.8183L333.548 33.804L334.538 40.0257L331.773 40.4658L330.783 34.2441L317.178 15.5706L305.357 17.4523L328.66 47.6242L331.158 63.3167L342.218 61.5561L339.72 45.8636L352.573 9.9366L340.751 11.8183Z" fill="#202020"/>
<path d="M564.78 53.228L525.267 35.1078L521.182 44.0158L535.88 50.7562L519.394 86.7063L529.575 91.3749L546.061 55.4248L560.695 62.136L564.78 53.228Z" fill="#202020"/>
<path d="M544.503 98.6032L553.996 104.546L563.208 89.8314L579.584 100.083L570.372 114.797L579.865 120.74L588.223 107.39C590.265 104.127 589.6 101.233 586.336 99.1898L580.225 95.3642L581.711 92.9908C587.126 95.5546 593.891 97.1474 598.2 90.2647C604.068 80.8901 596.854 73.1533 586.886 66.9133L570.688 56.7734L544.503 98.6032ZM568.408 81.5248L574.982 71.0228L581.686 75.2199C587.323 78.7485 590.824 80.9399 587.518 86.2206C584.25 91.4419 580.749 89.2505 575.112 85.7219L568.408 81.5248Z" fill="#202020"/>
<path d="M609.44 145.541L618.153 152.798L638.766 105.74L621.016 90.9558L578.513 119.78L587.227 127.038L600.74 117.705L616.123 130.518L609.44 145.541ZM609.11 111.922L627.023 99.6033L629.175 101.395L620.297 121.241L609.11 111.922Z" fill="#202020"/>
<path d="M649.879 115.515L622.936 159.236L638.481 176.323L684.595 153.677L676.964 145.289L633.722 166.931L631.838 164.859L657.51 123.904L649.879 115.515Z" fill="#202020"/>
<path d="M645.778 185.281L666.072 214.054L674.08 208.406L660.242 188.785L668.422 183.016L680.243 199.776L688.252 194.128L676.43 177.367L684.553 171.638L698.392 191.259L706.4 185.61L686.106 156.837L645.778 185.281Z" fill="#202020"/>
<path d="M668.463 220.317L683.269 245.483L691.832 240.718L679.546 220.078L714.717 200.507L709.271 190.72L670.674 212.197C667.31 214.069 666.53 216.986 668.463 220.317Z" fill="#202020"/>
<path d="M86.2185 224.854C86.9788 225.086 87.7095 225.283 88.4041 225.44C91.6599 226.178 94.012 226.085 94.6874 224.981C95.3627 223.877 94.3009 221.861 92.0439 219.491C91.5638 218.986 91.0272 218.469 90.4454 217.945L86.2185 224.854Z" fill="#202020"/>
<path d="M72.3732 207.481L67.8883 214.812C69.9708 216.561 72.5571 218.364 75.4839 220.052L80.8418 211.294C77.8804 209.663 74.9795 208.374 72.3732 207.481Z" fill="#202020"/>
<path d="M94.5757 215.022C94.2538 214.354 93.8759 213.69 93.446 213.034L91.0716 216.915C91.7595 217.524 92.3862 218.124 92.9417 218.709C94.2444 220.076 95.182 221.38 95.6807 222.543C96.2305 220.202 95.8116 217.587 94.573 215.023L94.5757 215.022Z" fill="#202020"/>
<path d="M84.5781 205.188C81.5897 203.591 78.483 202.631 75.5483 202.293L73.0023 206.455C75.6243 207.369 78.5181 208.663 81.4603 210.285L84.5781 205.188Z" fill="#202020"/>
<path d="M92.6781 211.947C90.9406 209.652 88.5534 207.516 85.6437 205.79L82.5268 210.885C85.4364 212.56 88.0232 214.355 90.133 216.107L92.679 211.945L92.6781 211.947Z" fill="#202020"/>
<path d="M85.02 224.466L89.5049 217.135C87.4225 215.386 84.8362 213.583 81.9093 211.896L76.5514 220.653C79.5128 222.284 82.4138 223.573 85.02 224.466Z" fill="#202020"/>
<path d="M85.5812 225.887L83.2068 229.768C84.0128 229.808 84.7997 229.801 85.5664 229.746C88.5022 229.532 91.0871 228.61 92.949 227.008C91.6484 227.157 90.0047 227.006 88.1264 226.581C87.3227 226.398 86.4706 226.166 85.5828 225.887L85.5812 225.887Z" fill="#202020"/>
<path d="M72.1988 227.764L69.9779 231.394C72.9826 232.965 76.2502 233.665 79.4442 233.576L81.1758 230.745C78.2337 230.336 75.1561 229.35 72.1988 227.764Z" fill="#202020"/>
<path d="M67.2628 215.835L64.7168 219.997C66.4542 222.292 68.8414 224.428 71.7511 226.154L74.868 221.059C71.9584 219.384 69.3716 217.588 67.2619 215.837L67.2628 215.835Z" fill="#202020"/>
<path d="M85.6766 230.913C84.6581 230.986 83.6018 230.979 82.5206 230.893L80.9406 233.476C81.7911 233.386 82.6305 233.241 83.4562 233.042C85.8107 232.471 88.0411 231.454 90.0022 230.033C88.6747 230.506 87.2188 230.799 85.6766 230.913Z" fill="#202020"/>
<path d="M81.8484 229.651L84.3945 225.489C81.7708 224.573 78.8787 223.281 75.9365 221.659L72.8196 226.754C75.8097 228.352 78.9147 229.311 81.8494 229.649L81.8484 229.651Z" fill="#202020"/>
<path d="M62.8183 216.927C63.141 217.594 63.518 218.26 63.9463 218.914L66.3206 215.033C65.6327 214.424 65.0061 213.824 64.4505 213.239C63.1478 211.872 62.2102 210.568 61.7116 209.406C61.1618 211.746 61.5807 214.361 62.8183 216.927Z" fill="#202020"/>
<path d="M61.7029 217.405C61.0522 216.057 60.6104 214.693 60.3954 213.351C60.0563 215.686 60.2209 218.05 60.8477 220.303C61.069 221.092 61.3453 221.867 61.6771 222.622L63.2571 220.039C62.6517 219.175 62.1307 218.293 61.7012 217.404L61.7029 217.405Z" fill="#202020"/>
<path d="M71.1797 207.094C70.4195 206.861 69.6887 206.665 68.9957 206.508C65.7383 205.769 63.3879 205.864 62.7125 206.968C62.0371 208.072 63.0989 210.087 65.356 212.458C65.836 212.962 66.3711 213.479 66.9528 214.003L71.1797 207.094Z" fill="#202020"/>
<path d="M64.0458 221.093L62.3142 223.923C63.7907 226.645 66.0186 229.041 68.912 230.794L71.1329 227.164C68.2494 225.457 65.8504 223.358 64.0458 221.093Z" fill="#202020"/>
<path d="M85.1932 204.181L87.4141 200.55C84.4093 198.98 81.1417 198.279 77.9478 198.369L76.2162 201.199C79.1566 201.608 82.2358 202.594 85.1932 204.181Z" fill="#202020"/>
<path d="M95.692 214.541C96.3427 215.889 96.7846 217.253 96.9995 218.595C97.3386 216.26 97.174 213.896 96.5472 211.643C96.3259 210.854 96.0496 210.079 95.7162 209.323L94.1362 211.906C94.7416 212.77 95.2625 213.652 95.692 214.541Z" fill="#202020"/>
<path d="M71.8112 206.059L74.1855 202.178C73.3795 202.137 72.5927 202.145 71.8277 202.201C68.8902 202.414 66.3063 203.335 64.446 204.937C65.7466 204.789 67.3903 204.939 69.2686 205.365C70.0723 205.548 70.9244 205.779 71.8121 206.058L71.8112 206.059Z" fill="#202020"/>
<path d="M93.3479 210.853L95.0795 208.022C93.6039 205.299 91.375 202.905 88.4816 201.152L86.2607 204.782C89.1442 206.489 91.5433 208.588 93.3479 210.853Z" fill="#202020"/>
<path d="M71.719 201.034C72.7375 200.961 73.7938 200.968 74.8751 201.054L76.4551 198.471C75.6046 198.561 74.7651 198.706 73.9411 198.906C71.5866 199.477 69.3546 200.492 67.3951 201.915C68.721 201.441 70.1768 201.148 71.7207 201.035L71.719 201.034Z" fill="#202020"/>
<path d="M68.257 233.039L68.8988 231.99C64.2217 229.354 61.0942 225.183 59.8039 220.555C58.5162 215.926 59.0695 210.863 61.7761 206.435C64.4843 202.009 68.8217 199.078 73.6625 197.902C78.503 196.731 83.8217 197.32 88.4981 199.953C93.1752 202.589 96.3028 206.759 97.5947 211.388C98.884 216.018 98.3291 221.08 95.6226 225.508C92.9144 229.935 88.5769 232.866 83.7362 234.041C78.8956 235.212 73.5769 234.623 68.8988 231.99L67.6162 234.086C78.1865 240.042 91.7161 236.762 97.8377 226.756C103.958 216.752 100.352 203.815 89.7807 197.856C79.2105 191.9 65.6825 195.181 59.561 205.187C53.4404 215.192 57.0469 228.128 67.6162 234.086L68.258 233.037L68.257 233.039Z" fill="#202020"/>
<path d="M424.73 46.7862C424.859 47.5497 425.008 48.2716 425.177 48.9445C425.967 52.0985 427.114 54.0942 428.434 54.1814C429.753 54.2686 431.127 52.4395 432.288 49.4144C432.535 48.7709 432.768 48.0724 432.988 47.3319L424.73 46.7862Z" fill="#202020"/>
<path d="M434.454 26.9547L425.692 26.3757C425.023 28.9691 424.533 32.0235 424.302 35.3207L434.77 36.0124C434.933 32.7108 434.809 29.6158 434.454 26.9547Z" fill="#202020"/>
<path d="M437.538 49.5947C438.007 49.0143 438.447 48.3873 438.856 47.719L434.217 47.4125C433.967 48.2833 433.699 49.0968 433.411 49.8421C432.743 51.5874 431.967 52.9882 431.123 53.9446C433.523 53.3651 435.737 51.8226 437.536 49.5928L437.538 49.5947Z" fill="#202020"/>
<path d="M442.066 36.4938C442.187 33.1838 441.668 30.0589 440.654 27.3637L435.68 27.0349C436.022 29.7194 436.139 32.8102 435.975 36.0913L442.066 36.4938Z" fill="#202020"/>
<path d="M439.508 46.562C440.834 44.0213 441.72 40.9893 441.994 37.6894L435.905 37.287C435.677 40.5639 435.194 43.6151 434.535 46.2334L439.51 46.5621L439.508 46.562Z" fill="#202020"/>
<path d="M424.545 45.574L433.307 46.1531C433.976 43.5596 434.467 40.5052 434.697 37.2081L424.23 36.5163C424.066 39.8179 424.19 42.913 424.545 45.574Z" fill="#202020"/>
<path d="M423.493 46.7019L418.854 46.3953C419.18 47.1122 419.542 47.7904 419.938 48.4298C421.46 50.8772 423.473 52.7009 425.785 53.5919C425.062 52.5319 424.459 51.0399 424.003 49.2203C423.808 48.4413 423.637 47.5987 423.492 46.7037L423.493 46.7019Z" fill="#202020"/>
<path d="M415.73 35.9528L411.391 35.6661C411.303 38.9783 412.133 42.1256 413.656 44.8527L417.039 45.0762C416.088 42.3422 415.606 39.2309 415.73 35.9528Z" fill="#202020"/>
<path d="M424.469 26.2957L419.495 25.967C418.169 28.5077 417.282 31.5397 417.008 34.8396L423.098 35.242C423.325 31.9651 423.808 28.9139 424.467 26.2956L424.469 26.2957Z" fill="#202020"/>
<path d="M418.914 49.0523C418.387 48.2029 417.917 47.2845 417.509 46.3087L414.422 46.1047C414.888 46.801 415.4 47.463 415.955 48.0887C417.542 49.8713 419.483 51.3453 421.674 52.4035C420.64 51.4666 419.714 50.3373 418.914 49.0523Z" fill="#202020"/>
<path d="M418.348 45.1637L423.322 45.4924C422.98 42.8061 422.863 39.7171 423.027 36.436L416.938 36.0336C416.817 39.3455 417.337 42.4686 418.35 45.1638L418.348 45.1637Z" fill="#202020"/>
<path d="M421.46 22.9355C420.993 23.516 420.551 24.143 420.142 24.8094L424.781 25.1159C425.031 24.2451 425.299 23.4315 425.587 22.6862C426.255 20.9409 427.031 19.5401 427.875 18.5837C425.475 19.1633 423.261 20.7058 421.46 22.9355Z" fill="#202020"/>
<path d="M420.518 22.1848C421.463 21.0133 422.518 20.0149 423.654 19.2232C421.355 19.9828 419.256 21.1918 417.468 22.7512C416.842 23.2989 416.254 23.8883 415.71 24.5159L418.797 24.7199C419.319 23.8056 419.894 22.9563 420.518 22.183L420.518 22.1848Z" fill="#202020"/>
<path d="M434.271 25.7435C434.142 24.98 433.993 24.2581 433.824 23.587C433.034 20.4312 431.887 18.4373 430.567 18.3501C429.248 18.2629 427.874 20.0921 426.714 23.1171C426.466 23.7607 426.233 24.4573 426.014 25.1978L434.271 25.7435Z" fill="#202020"/>
<path d="M418.184 25.8795L414.801 25.6559C412.965 28.1629 411.767 31.1744 411.462 34.4721L415.8 34.7589C416.069 31.4903 416.916 28.465 418.184 25.8795Z" fill="#202020"/>
<path d="M443.272 36.5731L447.611 36.8598C447.7 33.5477 446.87 30.4004 445.347 27.6733L441.964 27.4497C442.914 30.1819 443.397 33.295 443.272 36.5731Z" fill="#202020"/>
<path d="M438.482 50.3437C437.537 51.5153 436.482 52.5137 435.345 53.3053C437.645 52.5458 439.743 51.3367 441.532 49.7773C442.157 49.2296 442.746 48.6403 443.289 48.0108L440.202 47.8068C439.681 48.7211 439.106 49.5704 438.482 50.3437Z" fill="#202020"/>
<path d="M435.506 25.8248L440.145 26.1314C439.819 25.4145 439.456 24.7363 439.06 24.0987C437.539 21.6495 435.527 19.8259 433.215 18.9368C433.938 19.9967 434.542 21.4887 434.997 23.3083C435.192 24.0873 435.364 24.93 435.508 25.825L435.506 25.8248Z" fill="#202020"/>
<path d="M440.815 46.6481L444.198 46.8717C446.035 44.3648 447.231 41.3532 447.537 38.0555L443.198 37.7687C442.93 41.0373 442.083 44.0626 440.815 46.6481Z" fill="#202020"/>
<path d="M440.086 23.478C440.613 24.3274 441.083 25.2457 441.491 26.2215L444.578 26.4255C444.112 25.7292 443.6 25.0672 443.044 24.4433C441.457 22.6608 439.517 21.1849 437.326 20.1286C438.359 21.0637 439.286 22.193 440.086 23.4798L440.086 23.478Z" fill="#202020"/>
<path d="M409.103 34.9165L410.357 34.9994C410.67 29.7579 413.092 25.1665 416.765 21.9607C420.439 18.7569 425.343 16.9523 430.634 17.3C435.925 17.6497 440.576 20.0858 443.84 23.7499C447.1 27.4157 448.958 32.29 448.647 37.5297C448.335 42.7713 445.912 47.3626 442.239 50.5702C438.565 53.7759 433.661 55.5788 428.37 55.231C423.079 54.8813 418.428 52.4452 415.164 48.781C411.904 45.1152 410.046 40.241 410.357 34.9994L407.851 34.8338C407.144 46.6797 416.262 56.9231 428.222 57.7134C440.179 58.5036 450.444 49.5429 451.153 37.6953C451.86 25.8495 442.742 15.6079 430.782 14.8176C418.824 14.0274 408.56 22.988 407.851 34.8338L409.105 34.9166L409.103 34.9165Z" fill="#202020"/>
<path d="M717.331 302.341C716.665 302.767 716.046 303.192 715.482 303.616C712.836 305.6 711.425 307.429 711.88 308.635C712.334 309.841 714.614 310.315 717.933 310.114C718.639 310.071 719.391 309.994 720.177 309.887L717.331 302.341Z" fill="#202020"/>
<path d="M739.947 302.897L736.927 294.891C734.215 295.353 731.141 296.16 727.945 297.297L731.553 306.862C734.726 305.664 737.587 304.295 739.947 302.897Z" fill="#202020"/>
<path d="M719.9 314.844C720.637 315.024 721.406 315.159 722.201 315.25L720.602 311.011C719.681 311.144 718.807 311.236 717.989 311.285C716.074 311.402 714.441 311.284 713.197 310.925C714.719 312.817 717.071 314.154 719.901 314.841L719.9 314.844Z" fill="#202020"/>
<path d="M734.068 313.531C737.232 312.291 739.961 310.559 742.085 308.564L740.37 304.019C737.984 305.415 735.123 306.775 731.969 307.965L734.068 313.531Z" fill="#202020"/>
<path d="M723.555 315.359C726.485 315.501 729.698 315.053 732.915 313.954L730.816 308.39C727.64 309.521 724.572 310.334 721.841 310.815L723.555 315.36L723.555 315.359Z" fill="#202020"/>
<path d="M718.399 301.685L721.419 309.692C724.131 309.229 727.205 308.422 730.401 307.285L726.793 297.72C723.62 298.919 720.758 300.288 718.399 301.685Z" fill="#202020"/>
<path d="M716.907 301.21L715.309 296.971C714.767 297.552 714.276 298.149 713.836 298.761C712.152 301.106 711.255 303.634 711.357 306.047C712.06 304.974 713.219 303.832 714.745 302.687C715.399 302.198 716.122 301.703 716.906 301.211L716.907 301.21Z" fill="#202020"/>
<path d="M723.862 289.954L722.367 285.989C719.214 287.258 716.591 289.275 714.645 291.736L715.811 294.827C717.996 292.871 720.727 291.178 723.862 289.954Z" fill="#202020"/>
<path d="M736.506 293.774L734.792 289.228C731.862 289.086 728.648 289.534 725.432 290.633L727.531 296.197C730.707 295.066 733.774 294.253 736.506 293.772L736.506 293.774Z" fill="#202020"/>
<path d="M712.835 298.107C713.42 297.294 714.093 296.504 714.845 295.745L713.781 292.924C713.315 293.621 712.901 294.344 712.538 295.091C711.506 297.224 710.909 299.545 710.805 301.919C711.266 300.621 711.951 299.34 712.835 298.107Z" fill="#202020"/>
<path d="M716.262 296.023L717.977 300.568C720.365 299.172 723.224 297.811 726.378 296.622L724.279 291.057C721.114 292.298 718.386 294.029 716.263 296.024L716.262 296.023Z" fill="#202020"/>
<path d="M738.442 289.74C737.706 289.562 736.936 289.425 736.143 289.334L737.742 293.572C738.663 293.44 739.538 293.347 740.356 293.298C742.27 293.181 743.904 293.3 745.147 293.659C743.625 291.766 741.273 290.43 738.442 289.74Z" fill="#202020"/>
<path d="M738.767 288.598C740.253 288.96 741.622 289.489 742.829 290.175C741.179 288.445 739.188 287.075 736.993 286.124C736.223 285.792 735.429 285.51 734.617 285.283L735.681 288.104C736.754 288.194 737.787 288.359 738.768 288.598L738.767 288.598Z" fill="#202020"/>
<path d="M741.012 302.244C741.677 301.819 742.296 301.393 742.859 300.971C745.507 298.986 746.916 297.157 746.461 295.951C746.006 294.746 743.726 294.272 740.408 294.473C739.702 294.515 738.951 294.592 738.165 294.699L741.012 302.244Z" fill="#202020"/>
<path d="M734.34 288.031L733.174 284.94C730.069 284.332 726.748 284.495 723.521 285.565L725.016 289.53C728.201 288.438 731.392 287.958 734.34 288.031Z" fill="#202020"/>
<path d="M734.485 314.632L735.98 318.597C739.133 317.328 741.756 315.311 743.703 312.851L742.537 309.76C740.353 311.715 737.62 313.409 734.485 314.632Z" fill="#202020"/>
<path d="M719.581 315.987C718.094 315.626 716.725 315.096 715.518 314.41C717.168 316.14 719.16 317.51 721.354 318.462C722.124 318.793 722.918 319.075 723.732 319.302L722.668 316.481C721.595 316.391 720.562 316.226 719.581 315.987Z" fill="#202020"/>
<path d="M741.438 303.372L743.037 307.611C743.579 307.03 744.07 306.433 744.508 305.822C746.194 303.477 747.091 300.95 746.987 298.538C746.284 299.611 745.126 300.753 743.599 301.898C742.945 302.387 742.222 302.882 741.439 303.374L741.438 303.372Z" fill="#202020"/>
<path d="M724.005 316.552L725.171 319.643C728.277 320.253 731.597 320.088 734.825 319.018L733.329 315.053C730.145 316.145 726.954 316.625 724.005 316.552Z" fill="#202020"/>
<path d="M745.51 306.477C744.925 307.29 744.252 308.081 743.5 308.84L744.564 311.661C745.03 310.964 745.444 310.241 745.805 309.494C746.837 307.361 747.436 305.04 747.539 302.667C747.079 303.964 746.394 305.245 745.508 306.478L745.51 306.477Z" fill="#202020"/>
<path d="M722.142 283.654L722.574 284.8C727.633 282.945 732.939 283.226 737.449 285.178C741.959 287.133 745.652 290.748 747.477 295.583C749.301 300.417 748.901 305.533 746.781 309.919C744.659 314.302 740.828 317.933 735.772 319.789C730.713 321.644 725.407 321.363 720.895 319.411C716.384 317.457 712.692 313.841 710.867 309.007C709.043 304.172 709.443 299.056 711.563 294.67C713.685 290.287 717.516 286.657 722.574 284.8L721.71 282.51C710.277 286.702 704.349 298.957 708.471 309.885C712.592 320.812 725.2 326.27 736.636 322.079C748.069 317.886 753.995 305.632 749.873 294.704C745.752 283.777 733.145 278.319 721.71 282.51L722.143 283.656L722.142 283.654Z" fill="#202020"/>
<path fill-rule="evenodd" clip-rule="evenodd" d="M717.933 310.114C718.434 310.083 718.958 310.036 719.501 309.973C719.724 309.947 719.949 309.918 720.177 309.887L717.331 302.341C717.137 302.465 716.948 302.589 716.763 302.712C716.31 303.014 715.882 303.316 715.482 303.616C712.836 305.6 711.425 307.429 711.88 308.635C712.334 309.841 714.614 310.315 717.933 310.114ZM717.977 300.568C718.168 300.456 718.362 300.345 718.559 300.234C720.824 298.955 723.476 297.716 726.378 296.622C726.377 296.622 726.378 296.622 726.378 296.622L724.279 291.057C724.072 291.138 723.868 291.222 723.665 291.307C720.762 292.524 718.251 294.157 716.266 296.021C716.266 296.021 716.266 296.021 716.266 296.021C716.265 296.022 716.264 296.023 716.263 296.024L717.977 300.568ZM717.041 296.209L718.322 299.607C720.437 298.419 722.873 297.27 725.525 296.239L723.899 291.927C721.229 293.05 718.907 294.529 717.041 296.209ZM723.56 315.359C726.297 315.491 729.281 315.109 732.285 314.161C732.494 314.095 732.705 314.026 732.915 313.954L730.816 308.39C727.894 309.43 725.064 310.202 722.503 310.693C722.28 310.736 722.059 310.776 721.841 310.815L723.555 315.359C723.556 315.359 723.558 315.359 723.56 315.359C723.559 315.359 723.56 315.359 723.56 315.359ZM724.019 314.713C726.546 314.784 729.286 314.408 732.05 313.54L730.424 309.229C727.734 310.157 725.127 310.858 722.74 311.322L724.019 314.713ZM720.564 314.992C720.857 315.052 721.154 315.104 721.456 315.15C721.701 315.188 721.95 315.221 722.201 315.25L720.602 311.011C719.681 311.144 718.807 311.236 717.989 311.285C716.597 311.37 715.353 311.331 714.3 311.165C713.905 311.103 713.537 311.023 713.197 310.925C713.439 311.225 713.702 311.512 713.984 311.784C715.34 313.092 717.147 314.067 719.249 314.669C719.459 314.729 719.673 314.786 719.889 314.838C719.893 314.839 719.897 314.84 719.901 314.841C719.901 314.841 719.901 314.841 719.901 314.841L719.9 314.844C719.9 314.844 719.9 314.844 719.9 314.844C719.904 314.845 719.908 314.846 719.912 314.847C720.127 314.899 720.344 314.947 720.564 314.992ZM720.36 314.271C720.631 314.332 720.906 314.386 721.186 314.435L720.169 311.739C719.424 311.836 718.708 311.906 718.028 311.946C717.002 312.009 716.041 312.007 715.165 311.934C716.473 312.961 718.137 313.731 720.058 314.198L720.36 314.271ZM712.028 305.16C712.716 304.355 713.633 303.521 714.745 302.687C715.399 302.198 716.122 301.703 716.906 301.211C716.906 301.211 716.906 301.211 716.906 301.211L716.907 301.21L715.309 296.971C715.137 297.155 714.971 297.34 714.81 297.527C714.462 297.931 714.137 298.343 713.836 298.761C712.417 300.736 711.557 302.842 711.383 304.899C711.35 305.284 711.341 305.667 711.357 306.047C711.548 305.756 711.772 305.46 712.028 305.16ZM712.17 304.03C712.477 302.405 713.227 300.745 714.374 299.148C714.595 298.84 714.829 298.537 715.078 298.237L716.098 300.94C715.473 301.346 714.889 301.753 714.348 302.157C713.522 302.776 712.789 303.404 712.17 304.03ZM720.895 319.411C716.384 317.457 712.692 313.841 710.867 309.007C709.043 304.172 709.443 299.056 711.563 294.67C713.637 290.388 717.341 286.824 722.227 284.931C722.227 284.931 722.227 284.931 722.227 284.931C722.342 284.886 722.458 284.842 722.574 284.8C727.633 282.945 732.939 283.226 737.449 285.178C741.959 287.133 745.652 290.748 747.477 295.583C749.301 300.417 748.901 305.533 746.781 309.919C744.659 314.302 740.828 317.933 735.772 319.789C730.713 321.644 725.407 321.363 720.895 319.411ZM710.805 301.919C711.038 301.261 711.329 300.609 711.674 299.964C712.011 299.336 712.399 298.716 712.835 298.107C713.42 297.294 714.093 296.504 714.845 295.745L713.781 292.924C713.627 293.154 713.479 293.387 713.336 293.623C713.047 294.101 712.781 294.591 712.538 295.091C711.824 296.568 711.317 298.136 711.039 299.748C710.915 300.464 710.837 301.189 710.805 301.919ZM713.134 295.38C713.292 295.056 713.459 294.736 713.637 294.421L714.076 295.585M741.196 288.668C741.124 288.61 741.051 288.551 740.978 288.494C740.952 288.474 740.927 288.454 740.902 288.435C739.705 287.505 738.39 286.73 736.993 286.124C736.478 285.902 735.952 285.702 735.417 285.526C735.153 285.439 734.886 285.358 734.617 285.283L735.681 288.104C736.316 288.157 736.936 288.237 737.54 288.342C737.957 288.415 738.366 288.5 738.766 288.597C738.766 288.597 738.766 288.597 738.766 288.597C738.767 288.597 738.768 288.598 738.768 288.598L738.767 288.598C738.767 288.599 738.768 288.599 738.768 288.599C738.768 288.599 738.768 288.599 738.768 288.599C739.141 288.689 739.506 288.791 739.863 288.902C740.203 289.008 740.535 289.123 740.859 289.248C741.554 289.515 742.213 289.825 742.829 290.175C742.317 289.638 741.771 289.135 741.196 288.668ZM734.792 289.228C732.053 289.096 729.067 289.478 726.062 290.426C725.852 290.492 725.642 290.561 725.432 290.633L727.531 296.197C730.453 295.156 733.282 294.385 735.844 293.894C736.066 293.851 736.287 293.81 736.506 293.772L734.792 289.228ZM735.606 293.265L734.327 289.874C731.8 289.803 729.06 290.178 726.296 291.047L727.922 295.358C730.613 294.43 733.22 293.729 735.606 293.265ZM744.36 292.8C744.643 293.072 744.905 293.358 745.147 293.659C744.808 293.561 744.439 293.481 744.044 293.418C742.991 293.253 741.748 293.213 740.356 293.298C739.538 293.347 738.663 293.44 737.742 293.572L736.143 289.334C736.394 289.363 736.643 289.396 736.889 289.434C737.42 289.516 737.939 289.618 738.442 289.74C740.823 290.32 742.866 291.358 744.36 292.8ZM742.859 300.971C745.507 298.986 746.916 297.157 746.461 295.951C746.006 294.746 743.726 294.272 740.408 294.473C739.907 294.503 739.384 294.55 738.841 294.613C738.619 294.639 738.394 294.668 738.165 294.699L741.012 302.244C741.205 302.121 741.395 301.997 741.58 301.874C742.032 301.572 742.46 301.27 742.859 300.971ZM723.732 319.302C723.463 319.227 723.196 319.146 722.932 319.059C722.396 318.884 721.87 318.684 721.354 318.462C719.842 317.806 718.425 316.951 717.151 315.917C716.576 315.451 716.031 314.948 715.518 314.41C716.135 314.761 716.793 315.07 717.489 315.337C718.154 315.593 718.853 315.81 719.581 315.987C720.562 316.226 721.595 316.391 722.668 316.481L723.732 319.302ZM722.628 318.254L722.194 317.102C721.238 317.004 720.312 316.847 719.424 316.631M722.628 318.254C722.287 318.13 721.95 317.997 721.617 317.853C720.778 317.489 719.969 317.062 719.2 316.575C719.275 316.594 719.349 316.613 719.424 316.631M744.508 305.822C745.929 303.846 746.789 301.741 746.963 299.685C746.995 299.301 747.004 298.918 746.987 298.538C746.797 298.829 746.573 299.124 746.317 299.424C745.63 300.23 744.712 301.063 743.599 301.898C742.948 302.385 742.228 302.878 741.448 303.368C741.448 303.369 741.447 303.369 741.447 303.369C741.447 303.369 741.447 303.369 741.447 303.369C741.444 303.371 741.442 303.372 741.439 303.374L743.037 307.611C743.208 307.427 743.375 307.242 743.536 307.055C743.884 306.651 744.208 306.24 744.508 305.822ZM744.75 307.462C744.362 307.931 743.945 308.391 743.5 308.84L744.564 311.661C744.718 311.431 744.866 311.198 745.009 310.962C745.298 310.484 745.564 309.994 745.805 309.494C746.464 308.132 746.947 306.693 747.236 305.213C747.241 305.186 747.246 305.159 747.252 305.133C747.27 305.035 747.288 304.937 747.305 304.838C747.429 304.122 747.507 303.397 747.539 302.667C747.306 303.324 747.015 303.977 746.67 304.622C746.504 304.931 746.326 305.237 746.136 305.542C745.94 305.856 745.731 306.168 745.51 306.476C745.509 306.476 745.51 306.476 745.51 306.476C745.509 306.477 745.509 306.478 745.508 306.478L745.51 306.477C745.51 306.478 745.509 306.478 745.509 306.479C745.509 306.479 745.509 306.479 745.509 306.479C745.271 306.81 745.017 307.139 744.75 307.462ZM722.966 283.961C728 282.288 733.234 282.631 737.713 284.57C742.374 286.591 746.204 290.335 748.097 295.348C749.989 300.363 749.572 305.668 747.378 310.207C745.181 314.743 741.22 318.495 736 320.411C730.778 322.326 725.296 322.037 720.632 320.019C715.968 317.999 712.14 314.254 710.247 309.241C708.356 304.226 708.773 298.921 710.966 294.382C713.075 290.029 716.808 286.398 721.722 284.418M717.003 303.349C716.607 303.616 716.232 303.882 715.88 304.146C714.581 305.119 713.625 306.027 713.053 306.809C712.456 307.623 712.397 308.129 712.5 308.401C712.603 308.676 712.99 309.024 713.984 309.257C714.936 309.48 716.264 309.551 717.893 309.452C718.33 309.426 718.787 309.386 719.26 309.333L717.003 303.349ZM736.501 295.639C734.147 296.073 731.53 296.762 728.804 297.699L731.938 306.005C734.621 304.959 737.059 303.795 739.129 302.607L736.501 295.639ZM739.947 302.897L736.927 294.891C734.392 295.323 731.542 296.056 728.57 297.078C728.362 297.15 728.154 297.223 727.945 297.297L731.553 306.862C731.76 306.784 731.966 306.705 732.171 306.625C735.098 305.485 737.742 304.203 739.947 302.897ZM742.085 308.564L740.37 304.019C740.179 304.131 739.985 304.242 739.788 304.353C737.524 305.631 734.87 306.871 731.969 307.965C731.969 307.965 731.969 307.965 731.969 307.965L734.068 313.531C734.275 313.45 734.48 313.367 734.683 313.282C737.586 312.064 740.1 310.429 742.085 308.564ZM734.449 312.662C737.117 311.539 739.441 310.059 741.307 308.379L740.025 304.98C737.911 306.167 735.474 307.317 732.822 308.348L734.449 312.662ZM721.845 308.943L719.216 301.975C721.286 300.787 723.724 299.624 726.408 298.577L729.541 306.884C726.816 307.82 724.199 308.51 721.845 308.943ZM730.401 307.285C730.192 307.359 729.983 307.432 729.775 307.504C726.804 308.526 723.954 309.26 721.419 309.692L718.399 301.685C720.604 300.379 723.248 299.098 726.174 297.957C726.379 297.878 726.585 297.798 726.793 297.72L730.401 307.285ZM722.367 285.989C722.161 286.072 721.957 286.158 721.756 286.248C718.875 287.524 716.464 289.436 714.645 291.736L715.811 294.827C715.985 294.671 716.163 294.516 716.344 294.364C718.435 292.604 720.977 291.08 723.862 289.954L722.367 285.989ZM721.99 286.868C719.345 288.046 717.115 289.778 715.398 291.857L716.096 293.708C718.059 292.087 720.393 290.672 723.014 289.582L721.99 286.868ZM732.686 285.523C730.007 285.054 727.171 285.178 724.389 285.989L725.412 288.701C728.118 287.838 730.822 287.403 733.381 287.364L732.686 285.523ZM733.174 284.94C730.272 284.371 727.181 284.477 724.154 285.367C723.943 285.429 723.731 285.495 723.521 285.565L725.016 289.53C727.947 288.525 730.882 288.039 733.63 288.024C733.868 288.023 734.105 288.025 734.34 288.031L733.174 284.94ZM735.98 318.597C736.186 318.514 736.39 318.428 736.591 318.339C739.473 317.063 741.884 315.151 743.703 312.851L742.537 309.76C742.362 309.916 742.184 310.07 742.003 310.223C739.914 311.982 737.37 313.507 734.485 314.632L735.98 318.597ZM735.333 315.005C737.954 313.915 740.289 312.499 742.251 310.879L742.949 312.73C741.232 314.808 739.002 316.54 736.357 317.718L735.333 315.005ZM725.659 319.06L724.965 317.219C727.523 317.18 730.228 316.745 732.934 315.882L733.957 318.594C731.174 319.405 728.339 319.53 725.659 319.06ZM734.825 319.018C734.614 319.088 734.403 319.154 734.191 319.216C731.165 320.107 728.074 320.213 725.171 319.643L724.005 316.552C724.24 316.558 724.477 316.56 724.716 316.559C727.463 316.544 730.399 316.058 733.329 315.053L734.825 319.018ZM722.762 283.42L722.57 282.911ZM722.57 282.911C733.514 279.26 745.344 284.575 749.253 294.938C753.236 305.497 747.52 317.382 736.408 321.457M721.305 282.663C721.234 282.691 721.163 282.719 721.092 282.747C710.065 287.148 704.424 299.156 708.471 309.885C712.592 320.812 725.2 326.27 736.636 322.079C748.069 317.886 753.995 305.632 749.873 294.704C745.827 283.976 733.601 278.52 722.336 282.291C722.127 282.361 721.919 282.434 721.71 282.51C721.574 282.56 721.439 282.611 721.305 282.663C721.305 282.663 721.305 282.663 721.305 282.663ZM721.522 283.888L721.326 283.367C710.617 287.648 705.182 299.288 709.091 309.652C713.075 320.214 725.289 325.532 736.408 321.457" fill="#202020"/>
<path d="M333.011 719.858C333.011 719.084 332.985 718.348 332.932 717.658C332.682 714.421 331.885 712.27 330.598 711.975C329.31 711.681 327.648 713.268 325.995 716.069C325.643 716.665 325.295 717.317 324.955 718.013L333.011 719.858Z" fill="#202020"/>
<path d="M320.087 737.886L328.635 739.844C329.73 737.391 330.727 734.455 331.508 731.238L321.296 728.9C320.581 732.131 320.184 735.205 320.087 737.886Z" fill="#202020"/>
<path d="M320.845 715.06C320.285 715.559 319.745 716.108 319.23 716.702L323.755 717.739C324.147 716.919 324.549 716.159 324.958 715.469C325.91 713.853 326.911 712.594 327.904 711.783C325.439 711.976 322.995 713.147 320.846 715.063L320.845 715.06Z" fill="#202020"/>
<path d="M314.179 727.27C313.505 730.517 313.492 733.682 314.04 736.502L318.892 737.613C319.005 734.91 319.409 731.842 320.121 728.631L314.179 727.27Z" fill="#202020"/>
<path d="M318.391 717.741C316.657 720.038 315.273 722.889 314.449 726.102L320.389 727.462C321.164 724.265 322.152 721.331 323.242 718.852L318.389 717.741L318.391 717.741Z" fill="#202020"/>
<path d="M332.988 721.083L324.44 719.126C323.346 721.579 322.349 724.515 321.568 727.731L331.779 730.07C332.494 726.838 332.892 723.765 332.988 721.083Z" fill="#202020"/>
<path d="M334.216 720.137L338.741 721.174C338.54 720.415 338.296 719.688 338.013 718.995C336.923 716.339 335.242 714.221 333.11 712.977C333.646 714.137 333.991 715.704 334.135 717.572C334.196 718.371 334.224 719.23 334.216 720.135L334.216 720.137Z" fill="#202020"/>
<path d="M340.07 731.971L344.303 732.94C344.946 729.686 344.655 726.45 343.61 723.518L340.31 722.762C340.789 725.61 340.743 728.756 340.07 731.971Z" fill="#202020"/>
<path d="M329.827 740.116L334.68 741.227C336.415 738.93 337.798 736.079 338.622 732.867L332.682 731.506C331.907 734.703 330.919 737.637 329.829 740.116L329.827 740.116Z" fill="#202020"/>
<path d="M339.126 718.543C339.504 719.465 339.814 720.445 340.053 721.472L343.064 722.162C342.721 721.401 342.327 720.667 341.884 719.962C340.617 717.952 338.95 716.191 336.966 714.8C337.829 715.888 338.553 717.149 339.126 718.543Z" fill="#202020"/>
<path d="M339.033 722.468L334.181 721.357C334.067 724.061 333.664 727.128 332.952 730.339L338.892 731.699C339.567 728.451 339.579 725.287 339.032 722.468L339.033 722.468Z" fill="#202020"/>
<path d="M332.232 743.906C332.791 743.407 333.332 742.859 333.847 742.266L329.322 741.23C328.93 742.049 328.528 742.81 328.119 743.499C327.167 745.116 326.166 746.375 325.173 747.185C327.638 746.993 330.082 745.821 332.232 743.906Z" fill="#202020"/>
<path d="M333.035 744.797C331.906 745.804 330.698 746.622 329.443 747.223C331.839 746.837 334.113 745.977 336.139 744.721C336.848 744.28 337.528 743.791 338.169 743.258L335.158 742.568C334.49 743.388 333.78 744.135 333.035 744.799L333.035 744.797Z" fill="#202020"/>
<path d="M320.064 739.109C320.063 739.882 320.089 740.618 320.143 741.307C320.392 744.546 321.19 746.694 322.477 746.989C323.764 747.284 325.426 745.697 327.08 742.896C327.432 742.3 327.779 741.649 328.119 740.953L320.064 739.109Z" fill="#202020"/>
<path d="M335.959 741.522L339.259 742.277C341.491 740.094 343.178 737.313 344.033 734.107L339.8 733.138C338.987 736.32 337.644 739.171 335.959 741.522Z" fill="#202020"/>
<path d="M313.001 727.001L308.769 726.032C308.125 729.286 308.416 732.522 309.461 735.454L312.761 736.21C312.282 733.364 312.329 730.216 313.001 727.001Z" fill="#202020"/>
<path d="M320.039 714.172C321.168 713.165 322.376 712.347 323.63 711.746C321.234 712.132 318.961 712.992 316.934 714.248C316.225 714.689 315.546 715.178 314.904 715.713L317.915 716.403C318.583 715.583 319.293 714.836 320.039 714.172Z" fill="#202020"/>
<path d="M318.859 738.835L314.333 737.798C314.535 738.557 314.778 739.283 315.063 739.975C316.152 742.632 317.831 744.75 319.963 745.993C319.427 744.833 319.082 743.265 318.938 741.398C318.877 740.599 318.849 739.74 318.857 738.834L318.859 738.835Z" fill="#202020"/>
<path d="M317.117 717.449L313.817 716.693C311.583 718.876 309.898 721.658 309.042 724.863L313.275 725.833C314.089 722.65 315.432 719.799 317.117 717.449Z" fill="#202020"/>
<path d="M313.947 740.426C313.569 739.504 313.26 738.524 313.02 737.497L310.009 736.807C310.352 737.568 310.746 738.302 311.19 739.005C312.456 741.015 314.123 742.778 316.107 744.167C315.245 743.081 314.52 741.82 313.947 740.424L313.947 740.426Z" fill="#202020"/>
<path d="M346.435 734.041L345.212 733.761C344.024 738.883 340.862 743.03 336.701 745.612C332.538 748.191 327.397 749.196 322.235 748.016C317.073 746.834 312.894 743.694 310.288 739.563C307.687 735.43 306.672 730.327 307.858 725.206C309.046 720.084 312.208 715.938 316.369 713.354C320.532 710.773 325.673 709.77 330.835 710.95C335.997 712.132 340.177 715.271 342.782 719.403C345.384 723.536 346.399 728.639 345.212 733.761L347.657 734.321C350.343 722.745 343.065 711.196 331.398 708.524C319.733 705.853 308.102 713.07 305.413 724.647C302.727 736.222 310.005 747.77 321.672 750.442C333.337 753.113 344.969 745.896 347.657 734.321L346.433 734.041L346.435 734.041Z" fill="#202020"/>
<path fill-rule="evenodd" clip-rule="evenodd" d="M330.835 710.95C335.997 712.132 340.177 715.271 342.782 719.403C345.368 723.51 346.386 728.576 345.234 733.666C345.227 733.698 345.219 733.73 345.212 733.761C344.024 738.883 340.862 743.03 336.701 745.612C332.538 748.191 327.397 749.196 322.235 748.016C317.073 746.834 312.894 743.694 310.288 739.563C307.687 735.43 306.672 730.327 307.858 725.206C309.046 720.084 312.208 715.938 316.369 713.354C320.532 710.773 325.673 709.77 330.835 710.95ZM321.447 712.237C319.852 712.702 318.334 713.381 316.934 714.248C316.465 714.54 316.009 714.852 315.569 715.185C315.343 715.356 315.121 715.532 314.904 715.713L317.915 716.403C318.583 715.583 319.293 714.836 320.039 714.172C320.585 713.684 321.151 713.241 321.731 712.845C322.349 712.424 322.984 712.056 323.63 711.746C322.89 711.865 322.161 712.03 321.447 712.237ZM319.757 713.537C318.899 713.896 318.072 714.322 317.284 714.811C316.992 714.993 316.705 715.183 316.424 715.381L317.666 715.666C318.277 714.944 318.923 714.279 319.598 713.677M319.757 713.537C319.704 713.583 319.651 713.63 319.598 713.677ZM318.391 717.741C318.39 717.742 318.389 717.743 318.388 717.745C318.388 717.745 318.388 717.745 318.388 717.745C316.771 719.887 315.459 722.512 314.622 725.462C314.561 725.673 314.504 725.887 314.449 726.102L320.389 727.462C321.1 724.527 321.992 721.814 322.976 719.471C323.064 719.262 323.152 719.055 323.242 718.852L318.391 717.741ZM322.321 719.321L318.666 718.484C317.221 720.486 316.041 722.903 315.268 725.61L319.903 726.671C320.583 723.991 321.411 721.503 322.321 719.321ZM310.375 737.57C310.625 738.061 310.896 738.54 311.19 739.005C312 740.291 312.975 741.477 314.091 742.527C314.104 742.54 314.117 742.552 314.13 742.564C314.209 742.637 314.287 742.71 314.367 742.781C314.915 743.276 315.496 743.739 316.107 744.167C315.664 743.609 315.257 743.004 314.888 742.359C314.715 742.056 314.551 741.745 314.395 741.424C314.237 741.1 314.088 740.767 313.948 740.426C313.948 740.426 313.948 740.426 313.948 740.426C313.948 740.426 313.947 740.424 313.947 740.424L313.947 740.426C313.946 740.425 313.946 740.425 313.946 740.424C313.946 740.424 313.946 740.425 313.946 740.424C313.796 740.058 313.657 739.682 313.528 739.298C313.334 738.716 313.164 738.115 313.02 737.497L310.009 736.807C310.125 737.065 310.247 737.319 310.375 737.57ZM311.228 737.766C311.393 738.067 311.567 738.362 311.75 738.652C312.244 739.436 312.801 740.18 313.416 740.878L313.334 740.677C312.992 739.843 312.705 738.965 312.473 738.051L311.228 737.766ZM314.333 737.798C314.399 738.044 314.468 738.287 314.542 738.526C314.697 739.024 314.87 739.508 315.063 739.975C315.982 742.218 317.321 744.076 318.998 745.348C319.308 745.584 319.63 745.799 319.963 745.993C319.815 745.673 319.682 745.322 319.563 744.943C319.252 743.946 319.042 742.75 318.938 741.398C318.877 740.601 318.849 739.746 318.857 738.844C318.857 738.844 318.857 738.843 318.857 738.843C318.857 738.843 318.857 738.843 318.857 738.843C318.857 738.84 318.857 738.837 318.857 738.834L314.333 737.798ZM318.194 739.362L315.294 738.698C315.411 739.048 315.539 739.39 315.675 739.724C316.421 741.541 317.443 743.072 318.683 744.219C318.489 743.38 318.355 742.45 318.277 741.449C318.227 740.789 318.199 740.091 318.194 739.362ZM320.143 741.307C320.392 744.546 321.19 746.694 322.477 746.989C323.764 747.284 325.426 745.697 327.08 742.896C327.327 742.477 327.572 742.032 327.813 741.563C327.916 741.364 328.018 741.161 328.119 740.953L320.064 739.109C320.063 739.339 320.066 739.566 320.07 739.79C320.081 740.317 320.105 740.823 320.143 741.307ZM320.736 739.942C320.748 740.398 320.77 740.836 320.803 741.255C320.926 742.842 321.18 744.115 321.536 745.006C321.905 745.928 322.31 746.271 322.625 746.343C322.941 746.416 323.457 746.282 324.196 745.612C324.91 744.965 325.699 743.931 326.509 742.559C326.723 742.197 326.935 741.814 327.146 741.41L320.736 739.942ZM326.328 747.024C325.944 747.101 325.559 747.155 325.173 747.185C325.448 746.961 325.723 746.703 325.997 746.412C326.716 745.651 327.43 744.669 328.119 743.499C328.528 742.81 328.93 742.049 329.322 741.23L333.847 742.266C333.68 742.458 333.51 742.646 333.338 742.829C332.979 743.21 332.61 743.569 332.232 743.906C330.419 745.522 328.396 746.608 326.328 747.024ZM331.791 743.412C330.322 744.72 328.73 745.65 327.11 746.143ZM327.11 746.143C327.653 745.474 328.181 744.699 328.69 743.836ZM331.791 743.412C332.06 743.172 332.325 742.92 332.584 742.656L329.687 741.993M334.68 741.227C336.298 739.084 337.611 736.458 338.45 733.507C338.51 733.295 338.567 733.082 338.622 732.867L332.682 731.506C331.971 734.441 331.079 737.154 330.095 739.498C330.007 739.707 329.919 739.913 329.829 740.116L334.68 741.227ZM330.751 739.648L334.405 740.485C335.85 738.483 337.03 736.065 337.803 733.359L333.168 732.297C332.489 734.977 331.661 737.465 330.751 739.648ZM342.698 721.399C342.448 720.908 342.177 720.428 341.884 719.962C341.007 718.571 339.938 717.299 338.705 716.186C338.157 715.691 337.577 715.228 336.966 714.8C337.409 715.359 337.816 715.964 338.184 716.608C338.533 717.219 338.847 717.865 339.126 718.543C339.504 719.465 339.814 720.445 340.053 721.472L343.064 722.162C342.948 721.905 342.826 721.65 342.698 721.399ZM341.845 721.203C341.68 720.902 341.506 720.606 341.323 720.315C340.828 719.529 340.269 718.783 339.653 718.084C339.682 718.153 339.711 718.222 339.739 718.291L339.74 718.292C340.081 719.126 340.368 720.004 340.6 720.918L341.845 721.203ZM334.181 721.357C334.172 721.578 334.16 721.803 334.147 722.029C333.999 724.565 333.606 727.391 332.952 730.339L338.892 731.699C338.937 731.482 338.98 731.265 339.019 731.049C339.566 728.031 339.542 725.102 339.033 722.473C339.033 722.473 339.033 722.473 339.033 722.473C339.032 722.471 339.032 722.469 339.032 722.468L334.181 721.357ZM338.458 723.016L334.802 722.179C334.658 724.538 334.307 727.134 333.738 729.839L338.372 730.901C338.871 728.13 338.875 725.444 338.458 723.016ZM333.907 743.967C334.339 743.529 334.756 743.062 335.158 742.568L338.169 743.258C337.952 743.439 337.73 743.615 337.504 743.785C337.063 744.117 336.608 744.429 336.139 744.721C334.844 745.524 333.448 746.165 331.983 746.624C331.965 746.63 331.946 746.635 331.928 746.641C331.828 746.672 331.727 746.702 331.627 746.732C330.913 746.939 330.184 747.104 329.443 747.223C330.09 746.913 330.725 746.545 331.342 746.124C331.629 745.928 331.912 745.721 332.191 745.503C332.477 745.279 332.757 745.045 333.033 744.799C333.033 744.799 333.033 744.799 333.033 744.799C333.034 744.798 333.035 744.798 333.035 744.797L333.035 744.799C333.035 744.799 333.035 744.798 333.036 744.798C333.036 744.798 333.036 744.798 333.036 744.798C333.332 744.534 333.623 744.257 333.907 743.967ZM333.323 745.43L333.475 745.294C334.15 744.692 334.796 744.027 335.407 743.305L336.648 743.589C336.368 743.787 336.082 743.976 335.79 744.158C335.004 744.645 334.179 745.071 333.323 745.43ZM320.351 715.518C320.143 715.718 319.939 715.925 319.738 716.139C319.566 716.322 319.397 716.51 319.23 716.702L323.755 717.739C324.147 716.919 324.549 716.159 324.958 715.469C325.647 714.3 326.361 713.317 327.08 712.556C327.354 712.266 327.629 712.007 327.904 711.783C327.518 711.814 327.133 711.868 326.749 711.945C324.873 712.322 323.034 713.251 321.355 714.627C321.188 714.764 321.022 714.906 320.858 715.052C320.855 715.055 320.85 715.059 320.846 715.063C320.847 715.062 320.846 715.063 320.846 715.063L320.845 715.06C320.845 715.06 320.845 715.06 320.845 715.06C320.841 715.064 320.837 715.068 320.833 715.071C320.67 715.216 320.51 715.365 320.351 715.518ZM321.058 715.762L321.287 715.557C322.755 714.249 324.347 713.318 325.967 712.825C325.424 713.494 324.896 714.269 324.387 715.132M320.491 716.312C320.678 716.122 320.866 715.939 321.058 715.762ZM333.51 714.028C333.392 713.648 333.258 713.297 333.11 712.977C333.443 713.171 333.765 713.387 334.075 713.622C335.752 714.896 337.093 716.754 338.013 718.995C338.204 719.464 338.378 719.947 338.532 720.446C338.606 720.685 338.676 720.928 338.741 721.174L334.862 720.285L334.853 720.283L334.216 720.137L334.216 720.135C334.224 719.23 334.196 718.371 334.135 717.572C334.031 716.22 333.821 715.025 333.51 714.028ZM334.391 714.752C334.584 715.591 334.719 716.521 334.796 717.521C334.846 718.181 334.875 718.88 334.88 719.61L337.781 720.274C337.664 719.923 337.536 719.581 337.4 719.246C336.654 717.43 335.631 715.9 334.391 714.752ZM345.997 733.261C346.997 728.179 345.924 723.151 343.343 719.05C340.647 714.776 336.322 711.527 330.983 710.304C325.645 709.084 320.326 710.121 316.02 712.791C311.716 715.463 308.443 719.755 307.213 725.057C305.985 730.357 307.036 735.64 309.727 739.916C312.423 744.19 316.749 747.439 322.087 748.661C327.426 749.882 332.745 748.843 337.05 746.175C341.179 743.613 344.36 739.558 345.697 734.552L346.851 734.816C343.972 745.653 332.915 752.337 321.82 749.796C310.506 747.205 303.457 736.011 306.059 724.796C308.663 713.579 319.937 706.579 331.25 709.17C342.347 711.711 349.341 722.53 347.15 733.525L345.997 733.261ZM347.797 733.673C347.761 733.849 347.724 734.024 347.685 734.199C347.675 734.24 347.666 734.28 347.657 734.321C347.606 734.537 347.553 734.751 347.497 734.964C344.535 746.162 333.12 753.063 321.672 750.442C310.005 747.77 302.727 736.222 305.413 724.647C308.102 713.07 319.733 705.853 331.398 708.524C342.848 711.146 350.07 722.318 347.797 733.673ZM332.271 717.709C332.149 716.123 331.895 714.851 331.538 713.959C331.17 713.037 330.764 712.693 330.45 712.621C330.134 712.549 329.617 712.682 328.878 713.352C328.165 713.999 327.376 715.033 326.565 716.406C326.352 716.767 326.139 717.152 325.928 717.556L332.338 719.024C332.326 718.568 332.304 718.129 332.271 717.709ZM333.004 719.177C332.993 718.65 332.969 718.142 332.932 717.658C332.682 714.421 331.885 712.27 330.598 711.975C329.31 711.681 327.648 713.268 325.995 716.069C325.748 716.487 325.503 716.934 325.261 717.403C325.158 717.602 325.056 717.806 324.955 718.013L333.011 719.858C333.011 719.627 333.009 719.4 333.004 719.177ZM328.248 739.076C329.166 736.937 330.01 734.447 330.702 731.734L321.803 729.695C321.229 732.436 320.89 735.041 320.773 737.364L328.248 739.076ZM320.087 737.886L328.635 739.844C329.656 737.555 330.593 734.846 331.348 731.881C331.402 731.668 331.455 731.454 331.508 731.238L321.296 728.9C321.248 729.116 321.202 729.332 321.157 729.548C320.529 732.542 320.177 735.384 320.087 737.886ZM314.613 735.953C314.196 733.525 314.2 730.839 314.699 728.069L319.335 729.131C318.766 731.836 318.414 734.433 318.271 736.791L314.613 735.953ZM318.926 736.941C319.073 734.406 319.467 731.579 320.121 728.631L314.179 727.27C314.134 727.488 314.092 727.705 314.052 727.921C313.505 730.939 313.529 733.871 314.04 736.502L318.892 737.613C318.901 737.392 318.913 737.168 318.926 736.941ZM324.44 719.126C323.419 721.414 322.483 724.123 321.728 727.088C321.673 727.301 321.62 727.516 321.568 727.731L331.779 730.07C331.827 729.853 331.874 729.637 331.919 729.422C332.546 726.428 332.898 723.585 332.988 721.083L324.44 719.126ZM332.302 721.606C332.185 723.928 331.846 726.534 331.273 729.274L322.374 727.236C323.065 724.523 323.909 722.033 324.827 719.894L332.302 721.606ZM344.303 732.94C344.346 732.723 344.384 732.505 344.419 732.287C344.904 729.255 344.585 726.254 343.61 723.518L340.31 722.762C340.349 722.995 340.385 723.23 340.417 723.467C340.777 726.125 340.688 729.019 340.07 731.971L344.303 732.94ZM340.844 731.469L343.772 732.139C344.209 729.36 343.945 726.61 343.104 724.082L341.105 723.624C341.414 726.098 341.345 728.756 340.844 731.469ZM339.05 741.55C340.921 739.642 342.37 737.285 343.203 734.597L340.275 733.926C339.53 736.582 338.422 739.004 337.055 741.093L339.05 741.55ZM339.259 742.277C341.341 740.24 342.95 737.682 343.85 734.745C343.915 734.535 343.976 734.322 344.033 734.107L339.8 733.138C339.053 736.06 337.86 738.703 336.365 740.935C336.232 741.134 336.096 741.329 335.959 741.522L339.259 742.277ZM308.769 726.032C308.726 726.25 308.687 726.467 308.652 726.685C308.168 729.717 308.486 732.718 309.461 735.454L312.761 736.21C312.722 735.977 312.687 735.742 312.654 735.505C312.294 732.848 312.384 729.953 313.001 727.001L308.769 726.032ZM309.299 726.833C308.863 729.613 309.126 732.362 309.968 734.89L311.966 735.348C311.657 732.875 311.726 730.215 312.227 727.503L309.299 726.833ZM313.817 716.693C311.733 718.73 310.126 721.288 309.225 724.225C309.161 724.436 309.1 724.649 309.042 724.863L313.275 725.833C314.022 722.91 315.216 720.268 316.71 718.036C316.844 717.837 316.979 717.641 317.117 717.449L313.817 716.693ZM316.021 717.878C314.654 719.966 313.546 722.388 312.8 725.044L309.873 724.374C310.705 721.685 312.153 719.328 314.026 717.421L316.021 717.878Z" fill="#202020"/>
</svg>
