<svg width="143" height="50" viewBox="0 0 143 50" fill="none" xmlns="http://www.w3.org/2000/svg">
<path d="M51.5996 19.644C51.5996 30.876 57.6316 38.52 68.6036 38.52C78.6916 38.52 83.2156 31.136 83.2676 19.644H85.3476L83.7876 25.364V38H92.1076V21.984C92.1076 19.124 90.5476 17.564 87.6876 17.564H68.5516V23.804H77.0276C77.0276 28.744 73.9076 31.24 68.9156 31.24C62.8836 31.24 59.9196 27.756 59.9196 19.644C59.9196 11.584 63.6636 8.10001 70.0596 8.10001C75.5716 8.10001 78.3276 10.128 79.1596 14.444H87.4796C86.3876 6.43601 79.2636 0.820007 70.0596 0.820007C59.4516 0.820007 51.5996 8.46401 51.5996 19.644Z" fill="#F8F8F8"/>
<path d="M93.3885 38H101.709V8.62001L100.149 3.42001H102.229L108.105 38H124.225L130.101 3.42001H132.181L130.621 8.62001V38H138.941V1.34001H122.561L117.205 35.92H115.125L109.769 1.34001H93.3885V38Z" fill="#F8F8F8"/>
<path d="M55.6296 43.47C55.6296 45.55 56.6496 47.1 58.7196 47.1C60.5396 47.1 61.4896 45.93 61.4996 43.47H61.7296L61.5996 44.37V47H62.4196V43.79C62.4196 43.42 62.2296 43.24 61.8196 43.24H58.3396V43.9H60.7496C60.7796 45.59 60.1196 46.4 58.7296 46.4C57.0796 46.4 56.4496 45.2 56.4496 43.47C56.4496 41.75 57.3096 40.55 58.9596 40.55C60.3496 40.55 60.9396 41.31 61.0996 42.47H61.9196C61.7096 40.93 60.7296 39.85 58.9596 39.85C56.9196 39.85 55.6296 41.4 55.6296 43.47Z" fill="#F8F8F8"/>
<path d="M63.764 43.47C63.764 45.53 64.984 47.1 67.064 47.1C69.124 47.1 70.344 45.53 70.344 43.47C70.344 41.42 69.124 39.85 67.064 39.85C64.984 39.85 63.764 41.42 63.764 43.47ZM64.584 43.47C64.584 41.79 65.394 40.55 67.064 40.55C68.724 40.55 69.524 41.79 69.524 43.47C69.524 45.16 68.724 46.4 67.064 46.4C65.394 46.4 64.584 45.16 64.584 43.47Z" fill="#F8F8F8"/>
<path d="M71.9105 47H72.7305V44.17H76.2705V47H77.0905V44.35C77.0905 43.98 76.9305 43.82 76.5305 43.82H75.6905V43.58C76.4505 43.45 77.0005 42.98 77.0005 41.92C77.0005 40.34 75.9305 39.95 74.2505 39.95H71.9105V47ZM72.7305 43.47V40.65H74.2505C75.4505 40.65 76.1805 40.76 76.1805 42.06C76.1805 43.35 75.4505 43.47 74.2505 43.47H72.7305Z" fill="#F8F8F8"/>
<path d="M78.8339 47H83.2039V46.3H79.6539V43.82H82.7039V43.12H79.6539V40.65H83.2039V39.95H78.8339V47Z" fill="#F8F8F8"/>
<path d="M84.4687 39.95L86.7487 47H88.4287L90.6987 39.95H89.8887L87.6987 46.77H87.4687L85.2887 39.95H84.4687Z" fill="#F8F8F8"/>
<path d="M95.8933 47H96.7133V40.77L96.5833 40.18H96.8133L98.8333 47H100.483L102.503 40.18H102.743L102.603 40.77V47H103.423V39.95H101.783L99.7733 46.77H99.5433L97.5433 39.95H95.8933V47Z" fill="#F8F8F8"/>
<path d="M110.21 47H111.02L108.75 39.95H107.07L104.79 47H105.61L106.49 44.24H109.32L110.21 47ZM106.72 43.54L107.79 40.18H108.02L109.1 43.54H106.72Z" fill="#F8F8F8"/>
<path d="M118.036 39.95H116.856L113.216 42.95V39.95H112.396V47H113.216V44L116.856 47H118.036L113.736 43.47L118.036 39.95Z" fill="#F8F8F8"/>
<path d="M124.588 45.22C124.588 43.75 122.988 43.37 121.608 42.94C120.448 42.58 119.828 42.31 119.828 41.57C119.828 40.79 120.538 40.55 121.508 40.55C122.588 40.55 123.478 41.07 123.478 42.27H124.298C124.298 41.12 123.588 39.85 121.508 39.85C119.768 39.85 119.008 40.51 119.008 41.59C119.008 42.84 120.018 43.22 121.408 43.64C122.528 43.97 123.768 44.19 123.768 45.26C123.768 46.11 123.078 46.4 121.878 46.4C120.398 46.4 119.508 46.03 119.508 44.36H118.688C118.688 46.01 119.418 47.1 121.878 47.1C123.958 47.1 124.588 46.27 124.588 45.22Z" fill="#F8F8F8"/>
<path d="M129.635 40.65V39.95H125.665V40.65H127.245V46.3H125.665V47H129.635V46.3H128.065V40.65H129.635Z" fill="#F8F8F8"/>
<path d="M131.282 47H132.102V40.77L131.972 40.18H132.202L134.222 47H135.872L137.892 40.18H138.132L137.992 40.77V47H138.812V39.95H137.172L135.162 46.77H134.932L132.932 39.95H131.282V47Z" fill="#F8F8F8"/>
<circle cx="31.4099" cy="5.76923" r="5.76923" fill="url(#paint0_linear_521_7327)"/>
<rect width="11.5385" height="24.359" rx="5.76923" fill="url(#paint1_linear_521_7327)"/>
<rect x="25.6406" y="38.4615" width="24.359" height="11.5385" rx="5.76923" fill="url(#paint2_linear_521_7327)"/>
<rect x="25.6406" width="24.359" height="11.5385" rx="5.76923" fill="url(#paint3_linear_521_7327)"/>
<circle cx="5.76923" cy="31.4102" r="5.76923" fill="url(#paint4_linear_521_7327)"/>
<circle cx="18.5897" cy="31.4102" r="5.76923" fill="url(#paint5_linear_521_7327)"/>
<circle cx="18.5897" cy="18.5897" r="5.76923" fill="url(#paint6_linear_521_7327)"/>
<circle cx="18.5897" cy="5.76923" r="5.76923" fill="url(#paint7_linear_521_7327)"/>
<circle cx="18.5897" cy="44.2307" r="5.76923" fill="url(#paint8_linear_521_7327)"/>
<circle cx="31.4099" cy="31.4102" r="5.76923" fill="url(#paint9_linear_521_7327)"/>
<circle cx="44.2311" cy="31.4102" r="5.76923" fill="url(#paint10_linear_521_7327)"/>
<circle cx="44.2311" cy="18.5897" r="5.76923" fill="url(#paint11_linear_521_7327)"/>
<circle cx="31.4099" cy="18.5897" r="5.76923" fill="url(#paint12_linear_521_7327)"/>
<circle cx="5.76923" cy="44.2307" r="5.76923" fill="url(#paint13_linear_521_7327)"/>
<path fill-rule="evenodd" clip-rule="evenodd" d="M24.359 44.2307C24.359 39.2447 26.4242 37.1794 31.4102 37.1794L25.641 31.4102C25.641 36.3962 23.5757 38.4615 18.5897 38.4615L24.359 44.2307Z" fill="url(#paint14_linear_521_7327)"/>
<path fill-rule="evenodd" clip-rule="evenodd" d="M25.641 5.76929C25.641 10.7553 23.5757 12.8206 18.5897 12.8206L24.359 18.5898C24.359 13.6038 26.4242 11.5385 31.4102 11.5385L25.641 5.76929Z" fill="url(#paint15_linear_521_7327)"/>
<path fill-rule="evenodd" clip-rule="evenodd" d="M44.2267 25.6802C39.2408 25.6497 37.1882 23.5718 37.2187 18.5859L31.4143 24.3197C36.4002 24.3502 38.4528 26.4281 38.4223 31.414L44.2267 25.6802Z" fill="url(#paint16_linear_521_7327)"/>
<path fill-rule="evenodd" clip-rule="evenodd" d="M5.77091 37.1629C10.7569 37.1758 12.8168 39.2464 12.8039 44.2324L18.5881 38.4782C13.6021 38.4653 11.5421 36.3946 11.5551 31.4086L5.77091 37.1629Z" fill="url(#paint17_linear_521_7327)"/>
<defs>
<linearGradient id="paint0_linear_521_7327" x1="25.6406" y1="0" x2="37.1791" y2="11.5385" gradientUnits="userSpaceOnUse">
<stop stop-color="#FFF6B7"/>
<stop offset="1" stop-color="#F6416C"/>
</linearGradient>
<linearGradient id="paint1_linear_521_7327" x1="0" y1="0" x2="18.8479" y2="8.92795" gradientUnits="userSpaceOnUse">
<stop stop-color="#FFA8A8"/>
<stop offset="1" stop-color="#FCFF00"/>
</linearGradient>
<linearGradient id="paint2_linear_521_7327" x1="25.6406" y1="38.4615" x2="34.5686" y2="57.3094" gradientUnits="userSpaceOnUse">
<stop stop-color="#FAB2FF"/>
<stop offset="1" stop-color="#1904E5"/>
</linearGradient>
<linearGradient id="paint3_linear_521_7327" x1="25.6406" y1="0" x2="34.5686" y2="18.8479" gradientUnits="userSpaceOnUse">
<stop stop-color="#FFF6B7"/>
<stop offset="1" stop-color="#F6416C"/>
</linearGradient>
<linearGradient id="paint4_linear_521_7327" x1="0" y1="25.641" x2="11.5385" y2="37.1795" gradientUnits="userSpaceOnUse">
<stop stop-color="#F0FF00"/>
<stop offset="1" stop-color="#58CFFB"/>
</linearGradient>
<linearGradient id="paint5_linear_521_7327" x1="12.8204" y1="25.641" x2="24.3589" y2="37.1795" gradientUnits="userSpaceOnUse">
<stop stop-color="#81FFEF"/>
<stop offset="1" stop-color="#F067B4"/>
</linearGradient>
<linearGradient id="paint6_linear_521_7327" x1="12.8204" y1="12.8205" x2="24.3589" y2="24.359" gradientUnits="userSpaceOnUse">
<stop stop-color="#FFF6B7"/>
<stop offset="1" stop-color="#F6416C"/>
</linearGradient>
<linearGradient id="paint7_linear_521_7327" x1="12.8204" y1="0" x2="24.3589" y2="11.5385" gradientUnits="userSpaceOnUse">
<stop stop-color="#F97794"/>
<stop offset="1" stop-color="#623AA2"/>
</linearGradient>
<linearGradient id="paint8_linear_521_7327" x1="12.8204" y1="38.4615" x2="24.3589" y2="49.9999" gradientUnits="userSpaceOnUse">
<stop stop-color="#F0FF00"/>
<stop offset="1" stop-color="#58CFFB"/>
</linearGradient>
<linearGradient id="paint9_linear_521_7327" x1="25.6406" y1="25.641" x2="37.1791" y2="37.1795" gradientUnits="userSpaceOnUse">
<stop stop-color="#F0FF00"/>
<stop offset="1" stop-color="#58CFFB"/>
</linearGradient>
<linearGradient id="paint10_linear_521_7327" x1="38.4619" y1="25.641" x2="50.0004" y2="37.1795" gradientUnits="userSpaceOnUse">
<stop stop-color="#92FFC0"/>
<stop offset="1" stop-color="#002661"/>
</linearGradient>
<linearGradient id="paint11_linear_521_7327" x1="38.4619" y1="12.8205" x2="50.0004" y2="24.359" gradientUnits="userSpaceOnUse">
<stop stop-color="#65FDF0"/>
<stop offset="1" stop-color="#1D6FA3"/>
</linearGradient>
<linearGradient id="paint12_linear_521_7327" x1="25.6406" y1="12.8205" x2="37.1791" y2="24.359" gradientUnits="userSpaceOnUse">
<stop stop-color="#92FFC0"/>
<stop offset="1" stop-color="#002661"/>
</linearGradient>
<linearGradient id="paint13_linear_521_7327" x1="0" y1="38.4615" x2="11.5385" y2="49.9999" gradientUnits="userSpaceOnUse">
<stop stop-color="#72EDF2"/>
<stop offset="1" stop-color="#5151E5"/>
</linearGradient>
<linearGradient id="paint14_linear_521_7327" x1="18.5897" y1="31.4102" x2="31.4102" y2="44.2307" gradientUnits="userSpaceOnUse">
<stop stop-color="#F0FF00"/>
<stop offset="1" stop-color="#58CFFB"/>
</linearGradient>
<linearGradient id="paint15_linear_521_7327" x1="18.5897" y1="5.76929" x2="31.4102" y2="18.5898" gradientUnits="userSpaceOnUse">
<stop stop-color="#FFF6B7"/>
<stop offset="1" stop-color="#F6416C"/>
</linearGradient>
<linearGradient id="paint16_linear_521_7327" x1="44.1914" y1="31.4493" x2="31.4496" y2="18.5506" gradientUnits="userSpaceOnUse">
<stop stop-color="#92FFC0"/>
<stop offset="1" stop-color="#002661"/>
</linearGradient>
<linearGradient id="paint17_linear_521_7327" x1="18.5731" y1="44.2474" x2="5.78585" y2="31.3937" gradientUnits="userSpaceOnUse">
<stop stop-color="#F0FF00"/>
<stop offset="1" stop-color="#58CFFB"/>
</linearGradient>
</defs>
</svg>
