<svg width="355" height="351" viewBox="0 0 355 351" fill="none" xmlns="http://www.w3.org/2000/svg">
<rect width="355" height="351" rx="175.5" fill="#F0FF00"/>
<path d="M67 175.359C67 236.434 99.9089 278 159.769 278C214.806 278 239.488 237.848 239.771 175.359H251.119L242.608 206.462V275.172H288V188.083C288 172.531 279.489 164.048 263.886 164.048H159.485V197.979H205.728C205.728 224.841 188.706 238.414 161.471 238.414C128.562 238.414 112.392 219.469 112.392 175.359C112.392 131.531 132.818 112.586 167.712 112.586C197.784 112.586 212.82 123.614 217.359 147.083H262.751C256.793 103.538 217.927 73 167.712 73C109.838 73 67 114.566 67 175.359Z" fill="black"/>
</svg>
