<svg width="195" height="193" viewBox="0 0 195 193" fill="none" xmlns="http://www.w3.org/2000/svg">
<path d="M104.292 49.1364L104.531 50.7469L105.237 49.2797L125.308 7.56596L118.217 53.2494L117.967 54.8624L119.078 53.6664L150.642 19.6812L130.303 61.2539L129.582 62.7261L131.002 61.9066L171.25 38.6693L139.473 72.4389L138.345 73.6377L139.95 73.2688L185.303 62.8403L144.914 85.8105L143.479 86.6268L145.126 86.7439L191.556 90.046L146.141 100.18L144.529 100.54L146.07 101.134L189.456 117.873L143.046 114.271L141.402 114.143L142.699 115.162L179.188 143.851L135.905 126.829L134.376 126.228L135.31 127.579L161.663 165.675L125.351 136.741L124.072 135.722L124.562 137.282L138.433 181.403L112.323 143.125L111.404 141.779L111.41 143.409L111.562 189.634L97.9781 145.416L97.5002 143.86L97.0222 145.416L83.4386 189.634L83.5905 143.409L83.5959 141.779L82.6775 143.125L56.5674 181.403L70.4383 137.282L70.9288 135.722L69.6497 136.741L33.3373 165.675L59.6902 127.579L60.6247 126.228L59.096 126.829L15.8116 143.851L52.3018 115.162L53.598 114.143L51.954 114.271L5.54415 117.873L48.93 101.134L50.4714 100.54L48.8589 100.18L3.44445 90.046L49.8746 86.7439L51.5215 86.6268L50.0863 85.8105L9.69747 62.8403L55.0509 73.2688L56.6552 73.6377L55.5271 72.4389L23.7505 38.6693L63.9985 61.9066L65.4179 62.7261L64.6976 61.2539L44.3582 19.6812L75.9227 53.6664L77.0336 54.8624L76.7832 53.2494L69.692 7.56596L89.7637 49.2797L90.4696 50.7469L90.7088 49.1364L97.5002 3.40388L104.292 49.1364Z" stroke="black"/>
</svg>
