<svg width="330" height="215" viewBox="0 0 330 215" fill="none" xmlns="http://www.w3.org/2000/svg">
<path d="M330 107.5C294.643 148.276 251.553 215 162.054 215C72.5539 215 17.6786 148.276 0 107.5C14.7321 63.0172 72.5539 0 162.054 0C251.553 0 288.75 55.6034 330 107.5Z" fill="white"/>
<path d="M265.178 104.514C265.178 162.235 219.008 209.028 162.053 209.028C105.099 209.028 58.9284 162.235 58.9284 104.514C58.9284 46.7925 105.099 0 162.054 0C219.008 0 265.178 46.7925 265.178 104.514Z" fill="black"/>
<path d="M164.999 17.916L173.738 74.4475L209.196 29.9179L188.873 83.3037L241.55 62.7077L197.612 98.6431L253.392 107.499L197.612 116.356L241.55 152.291L188.873 131.695L209.196 185.081L173.738 140.551L164.999 197.083L156.261 140.551L120.803 185.081L141.125 131.695L88.4488 152.291L132.387 116.356L76.6064 107.499L132.387 98.6431L88.4488 62.7077L141.125 83.3037L120.803 29.9179L156.261 74.4475L164.999 17.916Z" fill="#F6CA45"/>
</svg>
