<svg width="36" height="20" viewBox="0 0 36 20" fill="none" xmlns="http://www.w3.org/2000/svg">
<path fill-rule="evenodd" clip-rule="evenodd" d="M26.5811 0.5V1.5C26.5811 4.37928 28.1948 6.22914 30.0273 7.40713C30.9464 7.99803 31.8997 8.40279 32.6779 8.65885C33.0658 8.78649 33.4029 8.87479 33.6616 8.93022C33.791 8.95796 33.8963 8.9765 33.9751 8.98771C34.0389 8.99679 34.0722 8.99916 34.0809 8.99978L34.0832 8.99998L34.0813 9H35.0811V11H34.0813L34.0832 11C34.0832 11.0001 34.0825 11.0001 34.0809 11.0002C34.0722 11.0008 34.0389 11.0032 33.9751 11.0123C33.8963 11.0235 33.791 11.042 33.6616 11.0698C33.4029 11.1252 33.0658 11.2135 32.6779 11.3412C31.8997 11.5972 30.9464 12.002 30.0273 12.5929C28.1948 13.7709 26.5811 15.6207 26.5811 18.5V19.5H24.5811V18.5C24.5811 14.7962 26.6679 12.4179 28.8086 11H1.91895H0.918945V9H1.91895H28.8086C26.6679 7.58209 24.5811 5.20382 24.5811 1.5V0.5H26.5811Z" fill="black"/>
</svg>
