<svg width="239" height="112" viewBox="0 0 239 112" fill="none" xmlns="http://www.w3.org/2000/svg">
<path d="M8.06614 83.3595L10.1148 80.9623L28.7001 87.0914L28.8662 86.8971L19.9152 69.4942L21.9639 67.0969L38.5504 81.2715L36.9447 83.1505L24.3428 72.3811L24.2044 72.5431L32.3767 88.4957L30.8264 90.3099L13.7949 84.7238L13.6565 84.8858L26.2584 95.6552L24.6527 97.5341L8.06614 83.3595Z" fill="black"/>
<path d="M45.1442 69.6472C44.5537 70.4996 43.8573 71.1619 43.0549 71.6343C42.2467 72.1025 41.3945 72.3287 40.4984 72.3127C39.5965 72.2927 38.7076 71.9794 37.8318 71.3728C37.0612 70.8389 36.5416 70.2544 36.2732 69.6192C35.9989 68.9799 35.9005 68.3113 35.9779 67.6133C36.0554 66.9153 36.2393 66.2132 36.5296 65.5072C36.8182 64.7912 37.138 64.0926 37.489 63.4113C37.9501 62.5211 38.3303 61.8039 38.6296 61.2595C38.9271 60.7053 39.0896 60.2649 39.1171 59.9384C39.1486 59.606 38.998 59.3245 38.6652 59.094L38.5952 59.0455C37.7311 58.4469 36.8959 58.2183 36.0896 58.3596C35.2873 58.495 34.5565 59.0386 33.8973 59.9902C33.2138 60.9769 32.894 61.9001 32.9378 62.7599C32.9816 63.6196 33.1698 64.3332 33.5025 64.9006L31.443 66.377C30.8683 65.4605 30.5555 64.5526 30.5045 63.6533C30.4518 62.7442 30.5755 61.8795 30.8758 61.0594C31.1743 60.2294 31.5581 59.4757 32.0272 58.7985C32.3265 58.3664 32.7228 57.9066 33.2161 57.4189C33.7077 56.9213 34.2931 56.519 34.9723 56.212C35.6556 55.8991 36.4368 55.7879 37.3158 55.8784C38.1949 55.9689 39.1686 56.3842 40.237 57.1243L49.0996 63.2635L47.668 65.3302L45.8464 64.0684L45.7736 64.1735C45.9685 64.5159 46.119 64.9658 46.2253 65.5232C46.3317 66.0807 46.3135 66.7118 46.1709 67.4165C46.0284 68.1213 45.6861 68.8648 45.1442 69.6472ZM43.506 68.0458C44.0722 67.2285 44.3888 66.4283 44.456 65.6454C44.5271 64.8566 44.4079 64.1433 44.0981 63.5054C43.7924 62.8616 43.3593 62.3456 42.7988 61.9573L40.9071 60.647C40.9516 60.8074 40.9144 61.0668 40.7958 61.4252C40.6753 61.7737 40.5137 62.1629 40.311 62.5927C40.1065 63.0127 39.9022 63.4198 39.6982 63.8141C39.4924 64.1986 39.3272 64.5118 39.2027 64.7539C38.9007 65.3396 38.6668 65.9205 38.5009 66.4968C38.3332 67.0632 38.3049 67.5966 38.4162 68.097C38.5257 68.5876 38.8431 69.0148 39.3686 69.3788C40.0867 69.8762 40.8137 69.9867 41.5495 69.7102C42.2836 69.4238 42.9357 68.869 43.506 68.0458Z" fill="black"/>
<path d="M54.8132 55.2886L52.7793 52.9344L53.1708 52.6054L53.9639 42.421L56.3455 40.4197L55.4677 51.232L55.3046 51.369L54.8132 55.2886ZM56.8569 61.3638L42.8207 44.66L44.7455 43.0426L58.7817 59.7464L56.8569 61.3638ZM64.8173 54.6747L54.7148 52.5882L54.9611 50.0992L67.2641 52.6186L64.8173 54.6747Z" fill="black"/>
<path d="M74.5288 31.4148L73.3123 33.4222C72.9518 33.2437 72.5491 33.119 72.1044 33.048C71.66 32.9671 71.1865 33.0006 70.6837 33.1488C70.181 33.2969 69.6621 33.6203 69.1269 34.1191C68.3944 34.8018 67.9412 35.5397 67.7676 36.3326C67.5943 37.1154 67.7473 37.764 68.2267 38.2784C68.6528 38.7356 69.1556 38.9418 69.7351 38.8968C70.3146 38.8519 71.0399 38.5885 71.9112 38.1066L74.0949 36.887C75.4073 36.1493 76.5753 35.8035 77.5988 35.8496C78.6174 35.8905 79.5166 36.3292 80.2962 37.1657C80.9353 37.8515 81.3093 38.6486 81.418 39.5569C81.5319 40.4605 81.3835 41.3949 80.9726 42.3604C80.5617 43.3258 79.8912 44.2419 78.9612 45.1087C77.7402 46.2466 76.4827 46.9234 75.1887 47.1392C73.8946 47.3549 72.6666 47.0529 71.5045 46.2331L72.8435 44.1696C73.6102 44.659 74.3748 44.8492 75.1375 44.7404C75.9053 44.6267 76.6659 44.2188 77.4193 43.5167C78.2765 42.7177 78.7877 41.9015 78.9527 41.0681C79.1181 40.2247 78.9611 39.5458 78.4817 39.0314C78.0943 38.6158 77.6244 38.4033 77.072 38.3939C76.5147 38.3793 75.8693 38.5827 75.1359 39.0041L72.705 40.3959C71.3666 41.1578 70.186 41.5057 69.1632 41.4395C68.1407 41.3633 67.2445 40.9122 66.4746 40.0861C65.8451 39.4106 65.4779 38.6364 65.373 37.7633C65.2732 36.8854 65.4153 35.9909 65.7991 35.0798C66.1882 34.1639 66.8035 33.3137 67.6452 32.5292C68.8298 31.4252 70.002 30.8182 71.1616 30.7083C72.3265 30.5935 73.4489 30.829 74.5288 31.4148Z" fill="black"/>
<path d="M91.581 41.8641L83.9029 27.4136L86.1232 26.2339L93.8013 40.6843L91.581 41.8641ZM83.7522 24.4053C83.3194 24.6353 82.868 24.6862 82.3977 24.558C81.9338 24.4265 81.5918 24.1538 81.3719 23.7399C81.1519 23.3259 81.1173 22.8899 81.268 22.4318C81.425 21.9704 81.7198 21.6248 82.1526 21.3948C82.5854 21.1649 83.0337 21.1157 83.4977 21.2471C83.9679 21.3753 84.313 21.6463 84.5329 22.0603C84.7529 22.4742 84.7844 22.9119 84.6274 23.3733C84.4767 23.8314 84.185 24.1754 83.7522 24.4053Z" fill="black"/>
<path d="M100.594 37.7197L96.9171 21.7744L99.284 21.2286L99.8584 23.7201L100.066 23.6722C100.202 22.7444 100.586 21.9598 101.218 21.3185C101.848 20.6702 102.683 20.2264 103.721 19.987C104.773 19.7445 105.703 19.7814 106.512 20.0978C107.327 20.4056 108.029 20.9397 108.62 21.7L108.786 21.6617C109.005 20.744 109.466 19.9488 110.171 19.276C110.875 18.5964 111.797 18.1249 112.939 17.8616C114.365 17.5329 115.634 17.7104 116.746 18.3942C117.857 19.071 118.629 20.3472 119.061 22.2227L121.522 32.8944L119.072 33.4593L116.611 22.7875C116.34 21.611 115.824 20.8443 115.064 20.4875C114.304 20.1307 113.488 20.0528 112.616 20.2539C111.495 20.5124 110.705 21.0517 110.245 21.872C109.784 22.6853 109.672 23.6076 109.91 24.6387L112.303 35.0198L109.812 35.5942L107.294 24.6734C107.085 23.7668 106.622 23.1044 105.907 22.6864C105.189 22.2615 104.367 22.1559 103.439 22.3697C102.803 22.5165 102.246 22.8233 101.771 23.2901C101.302 23.7552 100.968 24.328 100.768 25.0083C100.573 25.68 100.565 26.4069 100.746 27.189L103.043 37.1548L100.594 37.7197Z" fill="black"/>
<path d="M158.294 24.39C158.28 23.6354 158.172 22.9304 157.972 22.2749C157.78 21.6146 157.492 21.014 157.108 20.4731C156.731 19.9343 156.258 19.4663 155.689 19.0693C155.119 18.6723 154.458 18.3584 153.704 18.1277C152.468 17.7494 151.246 17.7246 150.039 18.0533C148.832 18.382 147.739 19.0763 146.761 20.1362C145.783 21.1961 145.018 22.6293 144.465 24.4358C143.912 26.2423 143.747 27.8594 143.972 29.2872C144.196 30.715 144.726 31.9061 145.563 32.8604C146.4 33.8147 147.464 34.4893 148.754 34.8842C149.949 35.2501 151.08 35.3175 152.146 35.0867C153.22 34.8512 154.156 34.3427 154.952 33.5614C155.757 32.7754 156.355 31.744 156.746 30.4672L157.47 30.8671L151.195 28.9466L151.881 26.7055L159.827 29.1373L159.141 31.3784C158.615 33.0967 157.791 34.4785 156.669 35.524C155.554 36.5716 154.247 37.2487 152.749 37.5554C151.261 37.8574 149.688 37.7548 148.031 37.2476C146.183 36.6823 144.693 35.7509 143.56 34.4534C142.434 33.1581 141.726 31.5895 141.435 29.7477C141.152 27.908 141.346 25.8879 142.02 23.6876C142.525 22.0373 143.2 20.6209 144.044 19.4385C144.898 18.2514 145.875 17.3173 146.974 16.6363C148.074 15.9553 149.257 15.5373 150.522 15.3825C151.788 15.2276 153.089 15.3548 154.427 15.7643C155.527 16.101 156.502 16.5812 157.351 17.205C158.209 17.8241 158.919 18.5501 159.481 19.3832C160.052 20.2115 160.461 21.1203 160.708 22.1094C160.957 23.0918 161.021 24.118 160.902 25.1881L158.294 24.39Z" fill="black"/>
<path d="M166.393 38.9808C165.14 38.1976 164.228 37.2123 163.655 36.025C163.088 34.8414 162.875 33.548 163.015 32.1447C163.162 30.7452 163.683 29.3289 164.579 27.8956C165.483 26.4504 166.534 25.3526 167.731 24.6022C168.935 23.8556 170.193 23.478 171.506 23.4692C172.824 23.4642 174.109 23.8533 175.362 24.6365C176.614 25.4197 177.524 26.403 178.091 27.5866C178.663 28.774 178.875 30.0704 178.725 31.4759C178.581 32.8852 178.057 34.3125 177.153 35.7577C176.257 37.191 175.209 38.2779 174.008 39.0184C172.814 39.7628 171.558 40.1374 170.24 40.1424C168.928 40.1512 167.645 39.764 166.393 38.9808ZM167.59 37.0658C168.542 37.6607 169.477 37.9064 170.396 37.8026C171.315 37.6989 172.171 37.3419 172.963 36.7315C173.755 36.1211 174.441 35.3522 175.021 34.4248C175.601 33.4974 175.994 32.541 176.2 31.5556C176.405 30.5702 176.355 29.6385 176.05 28.7606C175.744 27.8828 175.116 27.1464 174.164 26.5514C173.213 25.9565 172.276 25.7139 171.353 25.8236C170.43 25.9334 169.57 26.2965 168.774 26.9129C167.979 27.5293 167.291 28.3012 166.711 29.2286C166.131 30.156 165.74 31.1094 165.538 32.0888C165.336 33.0682 165.39 33.9938 165.699 34.8656C166.008 35.7375 166.639 36.4709 167.59 37.0658Z" fill="black"/>
<path d="M178.479 43.6353L187.876 30.239L189.865 31.6339L188.445 33.6573L188.585 33.7552C189.294 33.2637 190.113 33.0358 191.043 33.0717C191.972 33.1075 192.837 33.4068 193.64 33.9697C193.791 34.0757 193.978 34.2112 194.201 34.3761C194.423 34.541 194.589 34.67 194.697 34.7632L193.229 36.8564C193.171 36.79 193.029 36.6517 192.804 36.4414C192.588 36.2294 192.344 36.0275 192.071 35.8358C191.419 35.379 190.742 35.1078 190.039 35.0222C189.345 34.9348 188.683 35.0255 188.052 35.2942C187.431 35.5613 186.908 35.9971 186.484 36.6018L180.537 45.0792L178.479 43.6353Z" fill="black"/>
<path d="M194.591 51.6202C193.486 50.4953 192.782 49.2811 192.477 47.9776C192.183 46.6741 192.267 45.3616 192.731 44.0399C193.205 42.7183 194.04 41.4702 195.236 40.2958C196.432 39.1213 197.7 38.304 199.04 37.844C200.39 37.3841 201.706 37.2955 202.99 37.5783C204.283 37.8612 205.447 38.5296 206.482 39.5836C207.079 40.1916 207.568 40.8916 207.947 41.6835C208.327 42.4754 208.527 43.3386 208.549 44.2729C208.576 45.2023 208.359 46.1771 207.897 47.1975C207.436 48.2179 206.661 49.2631 205.572 50.3331L204.811 51.0795L195.973 42.0803L197.524 40.5575L204.57 47.7325C205.229 47.0856 205.688 46.3765 205.946 45.6054C206.209 44.8394 206.253 44.0689 206.079 43.2939C205.911 42.524 205.508 41.8147 204.871 41.1661C204.169 40.4516 203.385 40.0076 202.517 39.8341C201.66 39.6606 200.813 39.7107 199.977 39.9844C199.141 40.2582 198.401 40.711 197.758 41.343L196.724 42.3583C195.842 43.2242 195.244 44.1103 194.93 45.0164C194.625 45.9227 194.582 46.8063 194.8 47.667C195.024 48.5228 195.491 49.313 196.203 50.0376C196.665 50.5089 197.149 50.8698 197.654 51.1205C198.169 51.3712 198.698 51.504 199.24 51.519C199.788 51.5289 200.339 51.4109 200.893 51.1647L202.109 53.3755C201.342 53.7703 200.524 53.9714 199.655 53.9786C198.791 53.9809 197.924 53.7872 197.054 53.3977C196.188 53.0032 195.368 52.4107 194.591 51.6202Z" fill="black"/>
<path d="M225.756 57.7056L208.912 62.2508L207.431 60.1666L217.265 45.7559L218.845 47.9791L210.832 59.214L210.93 59.353L224.176 55.4824L225.756 57.7056Z" fill="black"/>
</svg>
