<svg width="160" height="160" viewBox="0 0 160 160" fill="none" xmlns="http://www.w3.org/2000/svg">
<path fill-rule="evenodd" clip-rule="evenodd" d="M160 80C160 124.183 124.183 160 80 160C35.8172 160 0 124.183 0 80C0 35.8172 35.8172 0 80 0C124.183 0 160 35.8172 160 80ZM58.6669 66.3707C66.1939 66.3707 72.2962 60.2683 72.2962 52.7406C72.2962 45.2136 66.1939 39.1111 58.6669 39.1111C51.1392 39.1111 45.0369 45.2136 45.0369 52.7406C45.0369 60.2683 51.1392 66.3707 58.6669 66.3707ZM101.333 66.3707C108.861 66.3707 114.963 60.2683 114.963 52.7406C114.963 45.2136 108.861 39.1111 101.333 39.1111C93.8061 39.1111 87.7038 45.2136 87.7038 52.7406C87.7038 60.2683 93.8061 66.3707 101.333 66.3707ZM80.5925 107.852C62.2652 107.852 47.4075 92.9942 47.4075 74.6669H33.1852C33.1852 100.849 54.4105 122.074 80.5925 122.074C106.775 122.074 128 100.849 128 74.6669H113.777C113.777 92.9942 98.9205 107.852 80.5925 107.852Z" fill="black"/>
</svg>
