<svg width="168" height="168" viewBox="0 0 168 168" fill="none" xmlns="http://www.w3.org/2000/svg">
<path d="M81.7583 1.99132C82.0737 -0.663772 85.9264 -0.663772 86.2417 1.99132L88.8846 24.2651C92.2972 53.0266 114.973 75.7028 143.735 79.1155L166.008 81.7583C168.664 82.0737 168.664 85.9264 166.008 86.2417L143.735 88.8846C114.973 92.2972 92.2972 114.973 88.8846 143.735L86.2417 166.008C85.9264 168.664 82.0737 168.664 81.7583 166.008L79.1155 143.735C75.7028 114.973 53.0266 92.2972 24.2651 88.8846L1.99132 86.2417C-0.663772 85.9264 -0.663772 82.0737 1.99132 81.7583L24.2651 79.1155C53.0266 75.7028 75.7028 53.0266 79.1155 24.2651L81.7583 1.99132Z" fill="#E5623C"/>
</svg>
