<svg width="103" height="170" viewBox="0 0 103 170" fill="none" xmlns="http://www.w3.org/2000/svg">
<path fill-rule="evenodd" clip-rule="evenodd" d="M102.154 128.975H94.6543C80.9219 128.975 72.1997 136.162 66.5893 144.387C63.7526 148.545 61.8012 152.873 60.5676 156.405C59.9535 158.164 59.5363 159.671 59.2807 160.795C59.1045 161.57 59.0387 162.016 59.0144 162.181C59.007 162.23 59.0034 162.255 59.0018 162.255C59.001 162.255 59.0006 162.25 59.0005 162.241V169.642H44.0005V169.641H44V162.251C43.9998 162.253 43.9995 162.255 43.9991 162.255C43.9975 162.255 43.9939 162.23 43.9865 162.181C43.9622 162.016 43.8964 161.57 43.7202 160.795C43.4646 159.671 43.0474 158.164 42.4333 156.405C41.1997 152.873 39.2483 148.545 36.4116 144.387C30.8012 136.162 22.079 128.975 8.3466 128.975H0.846603L0.846603 113.975H8.3466C24.669 113.975 36.2153 121.202 44 129.816L44 8.24609V0.746094L59 0.746094V8.24609L59 129.817C66.7847 121.202 78.3312 113.975 94.6543 113.975H102.154L102.154 128.975Z" fill="white"/>
</svg>
