<svg width="24" height="48" viewBox="0 0 24 48" fill="none" xmlns="http://www.w3.org/2000/svg">
<path id="Union" fill-rule="evenodd" clip-rule="evenodd" d="M23.7949 35.6838H22.2949C19.0252 35.6838 16.8577 37.7393 15.4244 40.246C14.7134 41.4896 14.2244 42.7831 13.9143 43.8427C13.7599 44.3704 13.6529 44.8293 13.5857 45.1819C13.5521 45.3583 13.5296 45.502 13.516 45.6098C13.5046 45.6991 13.5018 45.7453 13.5011 45.7569L13.5009 45.7597V47.2576H13.5009H10.5009H10.5009V47.2559H10.5008V45.7592C10.5008 45.7587 10.5007 45.7579 10.5007 45.7569C10.5 45.7453 10.4971 45.6991 10.4858 45.6098C10.4722 45.502 10.4497 45.3583 10.416 45.1819C10.3489 44.8293 10.2419 44.3704 10.0875 43.8427C9.77735 42.7831 9.28835 41.4896 8.57733 40.246C7.14406 37.7393 4.97661 35.6838 1.70685 35.6838H0.206852V32.6838H1.70685C5.91871 32.6838 8.7292 35.0765 10.5008 37.6682L10.5008 1.95703V0.457031L13.5008 0.457031V1.95703L13.5008 37.6684C15.2724 35.0766 18.083 32.6838 22.2949 32.6838H23.7949V35.6838Z" fill="white"/>
</svg>
